<svg height="955" version="1.1" viewBox="-376 -16 805 955" width="805" xmlns="http://www.w3.org/2000/svg" xmlns:ev="http://www.w3.org/2001/xml-events" xmlns:xlink="http://www.w3.org/1999/xlink"><path d="M 0,0 -4,4 -9,8 -4,4 0,0 -36,35 -71,70 -94,93 -106,146 -70,111 -35,76 1,41 36,6 43,-1 73,11 38,47 3,82 -32,118 -67,154 -102,189 -94,221 -59,186 -23,150 12,115 48,80 83,45 101,27 126,49 90,84 55,119 19,155 -16,190 -52,225 -90,263 -98,310 -62,275 -27,240 9,205 44,169 80,134 115,99 143,72 156,103 120,138 85,173 49,209 14,244 -22,279 -57,314 -93,349 -128,385 -164,420 -188,444 -211,488 -226,518 -190,483 -154,448 -119,413 -83,378 -47,344 -11,309 25,274 61,239 96,204 132,169 163,139 163,180 128,215 92,251 57,286 22,322 -13,357 -49,393 -84,428 -119,464 -154,499 -190,534 -225,570 -236,581 -242,626 -207,591 -171,555 -136,520 -100,485 -65,449 -30,414 6,379 41,344 77,308 112,273 147,238 167,218 172,251 137,287 102,322 66,358 31,393 -4,429 -39,464 -74,500 -110,535 -145,571 -180,606 -215,642 -251,678 -259,699 -293,719 -337,720 -367,751 -361,788 -364,831 -329,796 -293,760 -258,725 -222,690 -187,655 -151,619 -116,584 -80,549 -45,514 -9,478 26,443 61,408 97,373 132,337 168,302 187,283 199,317 163,352 128,387 92,422 57,458 21,493 -14,528 -50,563 -86,598 -121,633 -157,668 -192,703 -228,739 -264,774 -299,809 -335,844 -349,858 -322,875 -287,840 -251,804 -216,769 -180,734 -145,699 -109,663 -74,628 -39,593 -3,557 32,522 68,487 103,452 138,416 174,381 209,346 215,340 233,362 198,397 162,433 127,468 92,504 57,539 21,575 -14,610 -49,646 -84,681 -120,717 -155,752 -190,787 -225,823 -261,858 -287,885 -253,891 -218,856 -182,821 -147,785 -111,750 -76,715 -40,680 -5,644 31,609 66,574 102,539 137,503 173,468 208,433 243,398 252,389 267,414 232,449 196,485 161,520 126,556 90,591 55,626 20,662 -16,697 -51,733 -86,768 -122,803 -157,839 -192,874 -217,899 -184,907 -149,872 -113,837 -78,801 -42,766 -7,731 29,696 64,660 100,625 135,590 171,555 206,519 242,484 277,449 284,442 296,467 261,502 225,538 190,573 155,609 119,644 84,679 49,715 13,750 -22,786 -57,821 -92,856 -128,892 -148,912 -109,915 -74,880 -38,844 -3,809 33,774 68,738 103,703 139,668 174,632 210,597 245,562 280,527 312,495 326,529 291,564 255,600 220,635 184,670 149,706 114,741 78,776 43,811 7,847 -31,885 12,880 47,845 83,809 118,774 154,739 189,703 224,668 260,633 295,598 333,560 340,598 304,633 269,668 233,703 198,739 162,774 127,809 91,844 59,876 100,879 135,843 170,808 205,772 240,736 275,701 310,665 329,646 333,691 297,726 262,761 226,796 190,831 154,866 132,888 164,903 199,867 234,832 269,796 305,761 338,727 363,740 328,775 292,811 257,846 222,882 187,917 181,923 218,931 253,895 288,860 323,824 358,788 384,762 400,791 362,824 324,856 292,884 297,880 301,876 297,880 292,884" fill="none" stroke="#f0f0f0" stroke-width="3" /><path d="M 160,113 156,109 152,104 156,109 160,113 125,77 90,42 55,6 49,0 3,0 38,35 74,71 109,106 144,141 162,159 168,201 132,166 96,131 61,96 25,61 -11,26 -31,7 -53,28 -18,63 18,99 53,134 89,169 124,204 160,240 177,257 195,303 206,330 171,295 136,259 100,224 65,188 30,153 -5,117 -41,82 -75,47 -90,82 -54,117 -19,152 17,187 52,222 88,258 124,293 159,328 195,363 230,398 266,433 295,462 315,508 324,530 289,495 253,459 218,424 182,389 147,354 111,318 76,283 40,248 5,213 -30,177 -66,142 -96,112 -101,149 -66,184 -30,219 5,255 41,290 76,325 112,360 147,396 183,431 218,466 254,501 289,537 325,572 339,586 337,627 301,592 266,557 230,522 195,486 159,451 124,416 88,381 53,346 17,311 -19,275 -54,240 -90,205 -100,195 -89,248 -53,283 -18,318 18,354 53,389 89,424 124,459 160,494 195,530 231,565 266,600 302,635 336,669 342,722 307,687 271,651 236,616 201,580 166,545 130,509 95,474 60,439 25,403 -11,368 -46,332 -81,297 -92,286 -99,325 -63,360 -28,395 8,431 43,466 79,501 114,536 150,571 185,607 221,642 256,677 292,712 327,748 363,783 386,806 363,826 328,791 292,755 257,720 222,684 186,649 151,614 116,578 80,543 45,507 10,472 -26,437 -61,401 -96,366 -113,349 -135,372 -99,407 -64,442 -28,478 7,513 43,548 78,583 114,618 149,653 185,689 220,724 256,759 291,794 327,829 341,843 318,864 283,829 247,793 212,758 176,723 141,687 106,652 70,617 35,581 -1,546 -36,511 -71,476 -107,440 -142,405 -154,393 -171,419 -136,454 -100,490 -65,525 -29,560 6,596 41,631 77,666 112,702 148,737 183,772 218,807 254,843 292,881 272,902 237,866 202,831 166,795 131,760 96,724 61,689 26,653 -10,618 -45,582 -80,547 -115,511 -150,476 -185,441 -200,473 -165,508 -129,544 -94,579 -59,615 -23,650 12,685 47,721 83,756 118,792 153,827 188,862 224,898 248,922 211,929 176,894 140,858 105,823 70,787 35,752 -1,716 -36,681 -71,645 -106,610 -142,575 -177,539 -212,504 -216,500 -230,532 -195,567 -159,603 -124,638 -88,673 -53,708 -17,744 18,779 54,814 89,849 126,886 74,877 39,842 3,806 -32,771 -67,736 -103,700 -138,665 -173,630 -209,594 -235,568 -241,606 -205,641 -170,676 -134,711 -99,747 -63,782 -28,817 8,852 26,870 -11,876 -47,841 -82,806 -118,771 -153,735 -189,700 -224,665 -248,642 -251,679 -216,714 -180,750 -145,785 -110,821 -75,856 -47,884 -76,893 -112,858 -148,823 -184,789 -220,754 -256,719 -262,713 -292,722 -257,757 -221,793 -186,828 -151,863 -115,899 -98,916 -146,911 -181,875 -216,840 -252,804 -287,769 -322,733 -337,718 -363,735 -328,771 -293,806 -258,842 -222,877 -199,901 -251,890 -286,854 -321,819 -360,780 -360,821 -325,857 -303,879 -307,875 -311,870 -307,875 -303,879" fill="none" stroke="#f0f0f0" stroke-width="3" /><path d="M 7,-12 8,-6 9,0 8,-6 7,-12 11,14 12,29 -4,33 -11,59 -18,84 -20,96 0,113 1,141 3,168 2,181 20,201 29,213 32,200 26,213 30,193 23,212 29,187 26,197 20,211 28,180 17,210 24,186 26,172 20,195 14,210 16,205 26,166 27,158 23,175 11,210 18,184 26,156 0,148 0,134 2,110 10,101 28,88 54,80 78,81 99,89 120,104 134,121 137,129 140,142 144,163 143,174 142,201 142,220 115,220 99,216 96,229 103,210 101,217 99,231 108,204 102,232 111,205 107,219 105,233 114,206 106,233 136,221 141,221 145,240 148,260 143,273 148,275 158,301 170,325 180,349 185,375 194,399 206,424 218,449 229,474 237,499 249,523 263,547 278,572 292,596 306,621 308,630 302,651 325,665 334,674 342,644 352,602 349,615 339,653 329,683 334,663 344,624 352,591 341,633 330,672 324,690 326,681 336,642 347,604 352,581 343,613 333,652 322,691 319,695 328,661 339,622 349,584 351,573 345,593 335,632 325,670 315,700 320,680 331,641 341,602 350,565 348,573 337,612 327,650 317,689 310,705 312,698 322,659 333,621 343,582 348,559 340,592 329,630 319,669 306,708 314,678 325,639 335,601 345,562 347,552 342,571 332,610 321,649 311,687 302,712 306,697 317,658 327,619 337,581 346,546 344,551 334,590 323,629 313,667 303,706 298,715 309,676 319,638 329,599 340,561 344,539 336,570 326,609 315,647 305,686 294,718 301,695 311,656 321,618 332,579 342,540 343,533 338,550 328,588 318,627 307,666 297,704 291,720 292,714 303,675 313,636 324,598 334,559 341,529 330,568 320,607 310,646 299,684 287,721 295,693 305,655 315,616 326,578 336,539 339,524 333,548 322,587 312,626 302,664 291,703 284,724 287,712 297,673 307,635 318,596 328,557 337,520 335,528 325,567 314,605 304,644 293,683 280,725 289,692 299,653 310,615 320,576 330,537 335,515 327,547 316,585 306,624 296,663 285,701 277,725 281,710 291,672 302,633 312,595 322,556 333,517 333,510 329,527 319,565 308,604 298,643 288,681 277,720 274,726 283,690 293,652 304,613 314,574 325,536 332,506 321,545 311,584 300,622 290,661 280,700 270,726 275,709 285,670 296,632 306,593 316,554 327,516 330,501 323,525 313,564 303,602 292,641 282,680 272,718 267,726 277,689 288,650 298,612 308,573 319,534 328,496 326,505 315,544 305,582 294,621 284,660 274,698 264,727 269,707 280,669 290,630 300,591 311,553 321,514 326,493 317,524 307,562 297,601 286,639 276,678 266,717 261,726 272,687 282,649 292,610 303,571 313,533 323,494 324,488 320,503 309,542 299,581 289,619 278,658 268,697 258,725 263,706 274,667 284,628 295,590 305,551 315,513 322,483 312,522 301,561 291,599 281,638 270,677 260,715 255,724 266,686 276,647 286,608 297,570 307,531 318,492 320,479 314,502 304,541 293,579 283,618 273,656 262,695 252,724 258,704 268,666 278,627 289,588 299,550 309,511 318,474 316,482 306,520 296,559 285,598 275,636 264,675 254,714 250,722 260,684 270,645 281,607 291,568 301,530 312,491 316,469 308,500 298,539 287,578 277,616 267,655 256,694 247,721 252,703 262,664 273,625 283,587 293,548 304,509 314,471 315,465 310,480 300,519 290,558 279,596 269,635 259,673 248,712 244,719 254,683 265,644 275,605 285,567 296,528 306,489 312,461 302,499 292,537 282,576 271,615 261,653 251,692 242,718 246,701 256,662 267,624 277,585 287,547 298,508 308,469 310,457 305,479 294,517 284,556 274,595 263,633 253,672 243,711 239,715 248,681 259,642 269,604 279,565 290,526 300,488 308,454 297,497 286,536 276,575 266,613 255,652 245,690 237,713 240,700 251,661 261,622 271,584 282,545 292,506 302,468 306,450 299,477 288,516 278,554 268,593 257,632 247,670 234,711 243,679 253,641 263,602 274,564 284,525 294,486 304,446 301,457 291,496 280,534 270,573 260,612 249,650 239,689 232,709 234,698 245,659 255,621 266,582 276,543 286,505 297,466 302,443 293,476 283,514 272,553 262,591 252,630 241,669 229,706 237,678 247,639 257,601 268,562 278,523 289,485 299,446 300,439 295,455 285,494 275,533 264,571 254,610 244,649 233,687 227,702 229,696 239,658 249,619 260,581 270,542 280,503 291,465 298,435 287,474 277,513 267,551 256,590 246,629 235,667 225,700 231,676 241,638 252,599 262,560 272,522 283,483 293,445 295,432 290,454 279,493 269,531 258,570 248,608 238,647 227,686 223,696 233,656 244,618 254,579 264,540 275,502 285,463 293,428 292,434 281,472 271,511 261,550 250,588 240,627 230,666 221,691 225,675 236,636 246,598 256,559 267,520 277,482 287,443 291,424 284,452 273,491 263,530 253,568 242,607 232,646 219,687 227,655 238,616 248,577 259,539 269,500 279,462 289,421 286,432 276,471 265,510 255,548 245,587 234,625 224,664 217,682 219,673 230,635 240,596 250,557 261,519 271,480 281,441 287,417 278,451 268,489 257,528 247,567 237,605 226,644 215,677 222,653 232,615 242,576 253,537 263,499 273,460 284,421 285,413 280,431 270,469 260,508 249,547 239,585 228,624 218,663 214,672 224,633 234,594 245,556 255,517 265,479 276,440 283,410 272,449 262,488 251,527 241,565 231,604 220,642 212,666 216,652 226,613 237,574 247,536 257,497 268,458 278,420 281,406 274,429 264,468 254,506 243,545 233,584 223,622 211,660 218,632 228,593 239,554 249,516 260,477 270,438 279,402 277,409 266,448 256,486 246,525 235,564 225,602 215,641 209,653 220,611 231,573 241,534 251,496 262,457 272,418 276,400 269,428 258,466 248,505 238,544 227,582 217,621 208,646 212,630 223,591 233,553 243,514 254,475 264,437 274,396 271,408 261,446 250,485 240,523 229,562 219,601 207,639 215,610 225,571 235,533 246,494 256,455 266,417 272,393 263,426 252,465 242,503 232,542 221,581 211,619 207,626 217,590 227,551 238,512 248,474 258,435 269,397 270,390 265,406 255,445 244,483 234,522 224,561 213,599 207,615 209,608 219,570 230,531 240,492 250,454 261,415 267,387 257,425 247,463 236,502 226,540 216,579 206,606 211,588 221,550 232,511 242,472 253,434 263,395 265,383 259,404 249,443 239,482 228,520 218,559 206,595 213,568 224,529 234,491 244,452 255,414 263,380 251,423 241,462 231,500 220,539 210,578 206,586 216,548 226,509 236,471 247,432 257,393 260,378 254,403 243,442 233,480 222,519 212,557 205,577 208,567 218,528 228,489 239,451 249,412 258,374 256,383 245,421 235,460 225,499 214,537 204,568 210,546 220,508 231,469 241,431 251,392 256,371 248,401 237,440 227,479 217,517 204,558 212,526 222,488 233,449 243,410 254,368 250,381 240,420 229,459 219,497 209,536 203,549 214,506 225,468 235,429 245,390 252,364 242,400 232,438 221,477 211,516 202,540 206,525 217,486 227,448 237,409 248,370 249,361 244,380 234,418 224,457 213,496 201,533 209,505 219,466 229,427 240,389 247,359 236,398 226,437 215,475 205,514 200,526 211,485 221,446 232,407 242,369 245,355 238,378 228,417 218,455 207,494 198,520 203,503 213,465 224,426 234,387 242,352 241,358 230,397 220,435 210,474 197,514 205,483 215,444 226,406 236,367 240,349 233,377 222,415 212,454 202,492 195,508 197,502 207,463 218,424 228,386 238,346 235,356 225,395 214,434 204,472 194,502 199,482 210,443 220,404 230,366 236,342 227,375 216,414 206,452 196,491 192,497 202,461 212,423 222,384 233,346 233,339 229,355 219,394 208,432 198,471 190,492 194,480 204,441 214,403 225,364 231,336 221,373 211,412 200,451 189,487 196,460 206,421 217,383 227,344 229,332 223,353 213,392 203,431 192,469 187,481 198,440 208,401 219,363 227,328 215,372 205,411 195,449 185,478 190,458 200,420 211,381 221,342 225,325 218,352 207,390 197,429 186,468 183,473 192,438 203,400 213,361 222,322 220,332 209,370 199,409 189,448 181,470 184,457 195,418 205,380 215,341 220,318 212,350 201,389 191,428 179,466 186,437 197,398 207,359 218,321 218,315 214,330 204,369 193,407 183,446 177,462 178,455 189,417 199,378 209,339 216,311 206,349 196,387 185,426 174,458 181,435 191,396 201,358 212,319 214,308 208,329 198,367 187,406 177,445 173,454 183,415 193,376 204,338 212,305 200,347 190,386 179,424 171,449 175,434 185,395 196,356 206,318 209,301 202,327 192,366 182,404 169,445 177,413 188,375 198,336 208,296 205,307 194,346 184,384 174,423 167,440 169,432 179,393 190,355 200,316 206,292 197,326 186,364 176,403 165,436 171,412 182,373 192,335 202,296 204,286 199,305 189,344 178,383 168,421 163,432 174,392 184,353 194,315 202,281 191,324 180,363 170,401 161,429 166,410 176,372 186,333 197,294 200,278 193,304 183,342 172,381 162,420 159,425 168,390 178,352 189,313 198,273 195,284 185,322 175,361 164,400 157,420 160,409 170,370 180,332 191,293 196,269 187,302 177,341 167,380 155,417 162,389 172,350 183,311 193,273 194,264 190,282 179,321 169,359 159,398 153,412 164,369 175,330 185,291 193,259 181,301 171,339 161,378 151,407 156,387 167,349 177,310 187,271 191,255 184,281 173,319 163,358 153,397 149,402 159,367 169,328 179,290 189,250 186,261 176,299 165,338 155,376 148,396 150,386 161,347 171,308 182,270 187,244 178,279 168,318 157,356 146,392 153,366 163,327 173,288 184,250 186,238 180,259 170,298 160,336 149,375 144,385 155,345 165,307 176,268 185,231 183,239 172,278 162,316 151,355 143,378 147,364 157,325 168,287 178,248 183,225 174,257 164,296 154,335 142,372 149,344 160,305 170,267 180,228 182,218 177,237 166,276 156,315 146,353 140,367 152,324 162,285 172,247 181,211 179,217 169,256 158,295 148,333 139,361 143,342 154,304 164,265 175,226 179,205 171,236 161,274 150,313 140,352 137,356 146,322 156,284 166,245 177,206 178,198 173,216 163,254 153,293 142,332 135,351 138,341 148,302 158,263 169,225 177,192 165,234 155,273 144,312 133,347 140,321 150,282 161,243 171,205 175,184 167,214 157,253 147,291 136,330 131,342 142,301 153,262 163,223 173,185 178,163 170,194 159,233 149,271 139,310 129,338 134,319 144,280 155,242 165,203 176,165 178,151 172,174 162,213 151,251 141,290 131,329 127,335 136,299 147,260 157,222 167,183 178,141 174,154 164,193 154,231 143,270 133,308 125,330 128,318 139,279 149,240 159,202 170,163 177,134 166,172 156,211 145,250 135,288 123,326 131,297 141,259 151,220 162,182 172,143 176,123 168,152 158,191 148,230 137,268 127,307 121,323 123,316 133,277 143,239 154,200 164,161 174,123 175,115 171,132 160,171 150,210 140,248 129,287 119,319 125,296 135,257 146,219 156,180 166,141 174,108 163,151 152,189 142,228 132,267 121,305 117,314 127,276 137,237 148,199 158,160 169,121 173,101 165,131 155,169 144,208 134,247 124,285 115,311 119,294 129,256 140,217 150,178 160,140 171,101 171,95 167,111 157,149 147,188 136,226 126,265 113,306 121,274 132,236 142,197 152,158 163,120 170,90 159,129 149,168 138,206 128,245 118,284 111,301 113,293 124,254 134,216 144,177 155,138 165,100 168,85 161,109 151,148 141,186 130,225 120,264 110,295 116,273 126,234 136,195 147,157 157,118 166,80 164,89 153,128 143,166 133,205 122,243 112,282 108,289 118,253 128,214 138,175 149,137 159,98 164,76 156,107 145,146 135,185 125,223 114,262 106,284 110,271 120,233 130,194 141,155 151,117 161,78 162,71 158,87 148,126 137,165 127,203 117,242 106,283 110,259 112,251 122,212 133,174 143,135 153,97 160,67 150,106 139,145 129,183 119,222 109,251 114,231 125,192 135,154 145,115 156,76 158,64 152,86 142,124 131,163 121,202 108,243 117,211 127,172 137,134 148,95 156,60 154,66 144,104 134,143 123,182 113,220 106,237 108,229 119,191 129,152 140,114 150,75 154,56 146,84 136,123 126,162 115,200 104,234 111,209 121,171 131,132 142,93 152,53 149,64 138,103 128,141 118,180 107,219 102,232 113,189 123,151 134,112 144,73 150,49 141,83 130,121 120,160 110,190 115,169 126,131 136,92 146,53 147,46 143,63 132,101 122,140 110,178 118,149 128,110 138,72 145,43 135,81 124,120 114,158 108,172 120,129 130,90 141,52 143,40 137,61 127,100 116,138 107,165 112,147 122,109 132,70 140,37 129,80 119,118 106,158 114,127 124,89 135,50 138,33 131,60 121,98 111,137 104,155 106,146 116,107 127,69 136,32 133,39 123,78 113,117 102,150 108,126 119,87 129,49 133,29 125,58 115,97 105,135 100,145 111,106 121,67 131,26 128,38 117,77 107,115 97,144 102,124 113,86 123,47 128,24 120,56 109,95 99,134 95,140 105,104 115,66 125,27 126,21 122,36 112,75 101,114 93,138 97,123 107,84 117,45 123,19 114,55 103,94 90,135 99,103 109,64 120,25 121,16 116,35 106,73 95,112 88,134 91,121 101,83 112,44 118,15 108,53 98,92 85,131 93,101 104,62 114,24 116,13 110,33 100,72 90,110 83,129 85,120 95,81 106,42 113,11 102,52 92,90 80,129 87,100 98,61 108,22 111,8 105,32 94,70 84,109 77,127 79,118 90,79 100,41 108,7 96,50 86,89 74,126 82,98 92,59 102,21 105,6 99,30 88,69 78,107 71,124 73,117 84,78 94,39 103,4 101,10 91,49 80,87 69,123 76,96 86,58 96,19 100,2 93,29 83,67 72,106 66,123 68,115 78,76 88,38 97,1 95,8 85,47 75,86 62,123 70,95 80,56 91,18 94,0 87,27 77,66 66,104 59,123 62,113 72,75 83,36 91,-1 89,7 79,46 69,84 56,123 64,93 75,55 85,16 89,-3 81,25 71,64 61,103 53,124 56,112 66,73 77,35 86,-3 84,5 73,44 63,83 50,125 58,92 69,53 79,14 83,-4 76,24 65,63 55,101 46,127 50,110 61,72 71,33 80,-6 78,4 67,42 57,81 47,120 42,129 53,90 63,52 73,13 78,-7 70,22 59,61 49,100 38,132 45,109 55,70 65,31 75,-7 72,2 62,41 51,80 41,118 33,139 36,127 47,89 57,50 68,11 72,-8 64,21 54,59 43,98 33,137 29,144 39,107 49,69 59,30 69,-9 66,1 56,39 46,78 35,117 25,155 14,194 8,210 10,203 20,164 31,126 41,87 51,48 62,10 66,-9 58,19 48,58 37,97 27,135 17,174 5,209 12,183 23,144 33,106 43,67 54,28 63,-10 60,-1 50,38 40,76 29,115 19,154 9,192 2,209 4,201 15,163 25,124 35,86 46,47 56,8 60,-10 52,18 42,56 32,95 21,134 11,172 -1,209 6,181 17,143 27,104 37,65 48,27 57,-11 55,-2 44,36 34,75 24,114 13,152 3,191 -4,209 -2,200 9,161 19,123 29,84 40,45 50,7 54,-12 47,16 36,55 26,93 16,132 5,171 -7,209 1,180 11,141 21,103 32,64 42,25 51,-12 49,-4 38,35 28,73 18,112 7,151 -3,189 -10,209 -7,198 3,160 13,121 24,82 34,44 44,5 48,-12 41,15 30,53 20,92 10,130 -1,169 -13,209 -5,178 5,140 16,101 26,62 36,24 45,-12 43,-6 33,33 22,72 12,110 2,149 -9,188 -17,210 -13,197 -3,158 7,120 18,81 28,42 39,4 42,-13 35,13 25,52 14,90 4,129 -6,168 -17,206 -20,211 -11,177 -1,138 10,99 20,61 30,22 39,-14 37,-7 27,32 17,70 6,109 -4,147 -15,186 -23,212 -19,195 -9,157 2,118 12,79 22,41 33,2 36,-14 29,11 19,50 8,89 -2,127 -12,166 -23,205 -26,209 -17,175 -6,137 4,98 14,59 25,21 33,-14 31,-9 21,30 11,69 0,107 -10,146 -24,200 -23,187 -14,155 -4,116 6,78 17,39 27,1 30,-14 23,10 13,49 3,87 -8,126 -18,164 -22,173 -12,135 -2,96 9,58 19,19 27,-14 15,28 5,67 -5,106 -16,144 -23,164 -20,154 -10,115 0,76 11,38 21,-1 24,-15 18,8 7,47 -3,86 -13,124 -25,161 -18,133 -8,95 3,56 13,18 21,-15 10,27 -1,66 -11,104 -22,143 -27,156 -16,113 -5,75 5,36 15,-3 18,-15 12,7 1,45 -9,84 -19,123 -29,150 -24,132 -13,93 -3,55 7,16 15,-15 4,25 -7,64 -17,103 -27,141 -31,146 -22,112 -11,73 -1,35 10,-4 11,-15 6,5 -4,44 -15,83 -25,121 -33,142 -30,130 -19,92 -9,53 1,14 9,-16 -2,24 -12,62 -23,101 -35,139 -27,110 -17,72 -7,33 4,-6 5,-15 0,4 -10,42 -21,81 -31,120 -38,137 -35,129 -25,90 -15,51 -4,13 3,-14 3,-9 3,10 -4,32 -11,37 -18,64 -24,94 -42,85 -59,83 -71,88 -83,106 -90,118 -97,134 -100,150 -100,160 -99,172 -97,183 -95,193 -94,203 -88,228 -98,250 -96,268 -94,279 -95,286 -93,296 -98,322 -98,328 -101,333 -105,338 -113,350 -121,359 -129,372 -136,381 -141,387 -148,400 -155,412 -164,432 -175,455 -183,480 -188,493 -193,500 -197,510 -205,536 -211,562 -219,575 -220,590 -222,600 -210,614 -205,625 -191,646 -175,669 -155,687 -149,696 -132,711 -129,718 -109,735 -100,746 -98,751 -92,753 -72,775 -64,741 -67,752 -76,778 -71,761 -66,738 -75,770 -80,781 -69,741 -68,734 -73,750 -83,783 -77,759 -70,731 -81,769 -87,784 -85,778 -75,739 -73,728 -78,749 -90,785 -83,758 -75,726 -86,767 -93,786 -91,776 -81,738 -78,723 -84,747 -97,786 -89,756 -80,720 -82,727 -92,766 -100,787 -97,775 -86,736 -83,719 -90,746 -103,788 -94,755 -85,717 -88,726 -98,764 -106,788 -102,773 -92,735 -88,715 -96,744 -106,783 -110,788 -100,753 -91,713 -93,724 -104,763 -112,786 -108,772 -98,733 -93,712 -101,743 -115,784 -106,752 -96,710 -99,722 -110,761 -117,780 -114,770 -104,732 -98,708 -107,741 -119,777 -112,750 -101,712 -101,705 -105,721 -115,760 -121,774 -110,730 -104,704 -113,739 -123,770 -118,749 -107,710 -106,702 -111,719 -121,758 -126,767 -115,729 -109,699 -119,738 -128,764 -123,747 -113,708 -111,698 -117,718 -127,756 -130,761 -121,727 -114,695 -125,736 -132,757 -129,745 -119,707 -116,693 -122,716 -134,753 -127,725 -119,690 -120,696 -130,735 -137,751 -135,744 -125,705 -121,689 -128,715 -139,748 -133,724 -124,687 -126,695 -136,733 -141,744 -130,704 -126,684 -134,713 -144,742 -139,722 -129,682 -132,693 -142,732 -146,738 -136,702 -131,680 -140,712 -148,735 -144,721 -134,678 -138,692 -150,732 -142,701 -137,676 -146,710 -152,728 -150,719 -140,681 -139,674 -143,690 -155,725 -148,699 -142,672 -151,708 -157,722 -146,679 -144,670 -149,688 -159,719 -154,698 -147,668 -157,707 -161,715 -151,677 -149,667 -155,687 -164,712 -159,696 -152,664 -166,709 -157,676 -154,662 -161,685 -168,706 -165,694 -157,660 -170,702 -163,674 -160,659 -166,684 -173,700 -171,693 -162,656 -164,664 -175,697 -169,673 -165,653 -172,682 -177,693 -167,651 -170,662 -180,691 -175,671 -169,647 -178,681 -182,688 -172,651 -171,643 -176,661 -184,684 -180,670 -173,639 -187,681 -178,650 -175,635 -182,659 -189,679 -186,668 -177,629 -179,639 -191,676 -184,648 -178,623 -187,657 -193,672 -192,667 -182,628 -180,619 -185,637 -196,670 -190,646 -182,614 -193,656 -198,666 -187,626 -183,606 -191,636 -201,664 -195,645 -185,606 -182,591 -189,616 -199,654 -203,661 -193,625 -183,586 -176,562 -174,551 -176,557 -186,596 -197,634 -205,658 -201,643 -191,605 -181,566 -177,548 -184,576 -194,614 -207,655 -199,623 -189,585 -180,548 -182,555 -192,594 -202,633 -210,653 -207,642 -197,603 -186,565 -182,547 -208,547 -218,568 -242,557 -249,550 -256,577 -265,616 -263,606 -252,568 -243,540 -248,558 -258,597 -264,623 -255,588 -244,549 -241,535 -235,522 -240,540 -250,579 -260,617 -263,630 -257,608 -247,569 -236,530 -232,516 -226,502 -232,521 -242,560 -252,599 -261,636 -259,628 -249,589 -238,551 -228,512 -223,495 -217,477 -224,503 -234,541 -244,580 -255,619 -259,639 -251,609 -241,571 -230,532 -220,493 -209,460 -216,484 -226,523 -236,562 -247,600 -257,642 -253,629 -243,591 -233,552 -222,513 -212,475 -203,448 -207,466 -218,504 -228,543 -239,582 -249,620 -254,644 -245,611 -235,572 -225,534 -214,495 -204,456 -197,439 -199,447 -210,486 -220,524 -230,563 -241,602 -251,640 -251,645 -248,631 -237,592 -227,554 -217,515 -206,476 -196,438 -192,431 -202,467 -212,506 -222,545 -233,583 -243,622 -249,646 -240,612 -229,574 -219,535 -208,497 -198,458 -185,417 -194,449 -204,487 -214,526 -225,565 -235,603 -245,642 -246,647 -242,633 -231,594 -221,555 -211,517 -200,478 -190,439 -179,406 -186,430 -196,469 -206,507 -217,546 -227,585 -237,623 -243,648 -234,614 -223,575 -213,537 -203,498 -192,459 -182,421 -174,397 -177,412 -188,450 -198,489 -208,528 -219,566 -229,605 -240,648 -236,634 -226,595 -215,557 -205,518 -195,480 -184,441 -174,402 -169,390 -180,432 -190,470 -200,509 -211,548 -221,586 -231,625 -236,646 -228,616 -218,577 -207,538 -197,500 -187,461 -176,422 -164,383 -172,413 -182,452 -192,490 -203,529 -213,568 -223,606 -233,645 -230,636 -220,597 -209,558 -199,520 -189,481 -178,442 -168,404 -159,376 -164,395 -174,433 -184,472 -195,511 -205,549 -215,588 -226,626 -230,645 -222,617 -212,578 -201,540 -191,501 -181,463 -170,424 -160,385 -154,371 -166,415 -176,453 -187,492 -197,531 -207,569 -218,608 -226,644 -224,637 -214,599 -204,560 -193,521 -183,483 -173,444 -162,405 -149,365 -158,396 -168,435 -178,473 -189,512 -199,551 -210,589 -220,628 -223,642 -216,619 -206,580 -196,541 -185,503 -175,464 -165,425 -154,387 -145,361 -150,378 -160,416 -170,455 -181,494 -191,532 -201,571 -212,609 -220,644 -208,600 -198,561 -188,523 -177,484 -167,446 -156,407 -146,368 -141,357 -152,398 -162,436 -173,475 -183,514 -193,552 -204,591 -214,630 -218,646 -211,620 -200,582 -190,543 -179,504 -169,466 -159,427 -148,388 -137,352 -144,379 -154,418 -165,456 -175,495 -185,534 -196,572 -206,611 -215,648 -213,640 -202,602 -192,563 -182,524 -171,486 -161,447 -151,408 -140,370 -132,346 -136,361 -146,399 -157,438 -167,477 -177,515 -188,554 -198,592 -208,631 -213,651 -205,622 -194,583 -184,544 -174,506 -163,467 -153,429 -143,390 -132,351 -127,340 -138,381 -148,419 -159,458 -169,497 -180,535 -190,574 -200,613 -210,653 -207,642 -197,603 -186,565 -176,526 -166,487 -155,449 -145,410 -135,371 -122,332 -130,362 -140,401 -151,439 -161,478 -171,517 -182,555 -192,594 -202,633 -207,655 -199,623 -189,585 -178,546 -168,507 -158,469 -147,430 -137,391 -126,353 -116,322 -122,344 -132,382 -143,421 -153,460 -163,498 -174,537 -184,576 -194,614 -205,653 -206,658 -202,643 -192,604 -181,566 -170,527 -168,521 -160,489 -149,450 -139,412 -129,373 -118,334 -111,314 -114,325 -124,364 -135,402 -145,441 -155,480 -166,519 -162,509 -160,502 -152,470 -141,432 -131,393 -121,354 -110,316 -106,309 -116,345 -127,384 -137,423 -148,463 -143,449 -133,413 -123,374 -113,336 -103,309 -108,327 -118,365 -129,404 -132,422 -125,395 -115,356 -105,317 -101,310 -110,347 -121,385 -127,410 -131,400 -124,373 -119,361 -112,349 -104,337 -97,328 -82,320 -85,333 -92,352 -89,342 -83,314 -93,351 -96,357 -87,322 -83,303 -91,331 -101,364 -95,340 -85,302 -83,290 -88,311 -99,350 -106,371 -103,359 -93,320 -82,277 -86,291 -96,330 -107,368 -113,382 -101,339 -91,300 -83,269 -94,310 -105,348 -119,394 -109,357 -99,319 -88,280 -86,266 -92,290 -102,328 -113,367 -125,406 -117,376 -107,337 -96,299 -87,259 -90,270 -100,308 -110,347 -121,385 -127,410 -132,422 -125,395 -115,356 -105,317 -94,279 -88,252 -98,288 -108,327 -118,365 -129,404 -137,429 -133,413 -123,374 -113,336 -102,297 -92,259 -90,252 -94,267 -106,309 -116,345 -127,384 -137,423 -138,428 -127,384 -116,345 -106,307 -95,268 -91,252 -95,268 -104,301 -108,315 -119,354 -130,392 -140,428 -131,393 -121,354 -110,316 -109,310 -106,298 -100,277 -93,251 -103,286 -111,314 -114,325 -124,364 -135,402 -141,428 -135,402 -124,364 -114,325 -104,287 -94,251 -105,293 -97,286 -95,275 -96,259 -96,243 -92,235 -88,226 -67,235 -65,224 -68,234 -71,238 -67,221 -75,241 -70,223 -69,217 -74,232 -79,245 -71,213 -84,250 -76,221 -74,210 -79,231 -88,255 -84,240 -75,205 -77,211 -87,249 -89,255 -100,297 -111,335 -122,374 -133,412 -143,449 -133,413 -123,374 -113,336 -102,297 -92,259 -82,220 -78,201 -85,229 -95,268 -106,298 -100,277 -90,238 -80,198 -83,209 -93,248 -106,287 -98,257 -87,218 -82,193 -91,228 -101,266 -107,278 -95,237 -85,198 -83,188 -89,208 -99,246 -107,270 -103,255 -93,217 -85,184 -97,226 -108,260 -101,235 -91,197 -87,177 -94,206 -105,245 -108,250 -99,215 -89,177 -88,171 -92,186 -102,225 -108,239 -97,195 -89,162 -100,205 -108,227 -105,214 -94,175 -89,150 -98,184 -109,217 -102,194 -92,155 -92,149 -96,164 -109,206 -100,174 -94,148 -104,183 -109,204 -101,197 -99,185 -100,174 -101,162 -95,136 -87,111 -78,97 -67,83 -61,65 -84,52 -98,80 -111,105 -104,79 -92,39 -100,70 -111,110 -112,122 -106,99 -96,61 -87,30 -92,51 -103,90 -113,136 -108,120 -98,81 -88,42 -82,24 -84,33 -95,71 -105,110 -113,148 -111,140 -100,101 -90,62 -78,20 -86,53 -97,92 -107,130 -113,160 -103,121 -92,82 -82,44 -74,16 -78,34 -89,73 -99,112 -109,150 -112,169 -105,141 -95,103 -84,64 -74,25 -69,12 -81,55 -91,93 -101,132 -112,170 -112,179 -107,161 -97,123 -87,84 -76,45 -65,9 -73,36 -83,75 -93,113 -104,152 -111,186 -99,143 -89,104 -78,65 -68,27 -61,6 -65,17 -75,56 -85,95 -96,133 -106,172 -110,196 -101,163 -91,124 -81,86 -70,47 -60,8 -58,4 -67,38 -77,76 -88,115 -98,153 -108,192 -109,204 -104,183 -93,144 -83,106 -73,67 -62,28 -54,1 -59,19 -69,58 -79,96 -90,135 -100,174 -109,214 -106,203 -96,164 -85,126 -75,87 -65,48 -54,10 -50,-2 -61,39 -71,78 -82,116 -102,194 -109,217 -99,184 -89,152 -88,146 -77,107 -67,69 -57,30 -47,-3 -53,21 -63,59 -74,98 -84,136 -84,144 -80,127 -69,89 -59,50 -48,11 -44,-3 -55,41 -66,79 -76,118 -79,138 -71,109 -61,70 -51,31 -40,-4 -47,22 -58,61 -68,99 -75,133 -63,90 -53,52 -43,13 -37,-5 -39,4 -49,42 -60,81 -70,119 -71,130 -66,110 -55,72 -45,33 -33,-6 -41,24 -52,62 -62,101 -67,128 -58,92 -47,53 -37,14 -30,-7 -33,5 -44,44 -54,82 -64,121 -64,126 -60,112 -49,73 -39,35 -27,-8 -36,25 -46,64 -56,102 -61,126 -52,93 -41,55 -31,16 -23,-9 -28,7 -38,45 -48,84 -58,127 -54,113 -44,75 -33,36 -23,-2 -20,-9 -30,27 -40,65 -50,104 -55,128 -46,95 -36,56 -25,18 -17,-10 -22,8 -32,47 -42,85 -52,128 -48,115 -38,76 -28,38 -17,-1 -13,-11 -24,28 -34,67 -45,106 -49,129 -40,96 -30,58 -19,19 -10,-12 -16,10 -26,48 -37,87 -47,126 -46,131 -42,117 -32,78 -22,39 -11,1 -7,-13 -18,30 -29,68 -39,107 -44,133 -34,98 -24,59 -14,21 -4,-13 -10,11 -20,50 -31,89 -41,127 -41,134 -37,118 -26,79 -16,41 -6,2 0,-14 -2,-7 -12,31 -23,70 -33,109 -38,136 -29,100 -18,61 -8,22 3,-14 -4,13 -15,51 -25,90 -35,129 -36,139 -31,120 -21,81 -10,42 0,4 6,-15 4,-6 -7,33 -17,72 -27,110 -34,142 -23,101 -12,62 -2,24 9,-16 7,-10 5,-4 7,-10 9,-16" fill="none" stroke="#000000" stroke-width="3" /><path d="M -97,796 -93,801 -89,805 -93,801 -97,796 -85,810 -74,821 -64,829 -45,845 -32,858 -44,871 -59,891 -69,904 -69,896 -67,879 -67,886 -66,902 -66,876 -65,869 -65,901 -48,876 -38,864 -31,858 -18,860 3,860 29,860 46,857 63,854 79,852 98,849 110,847 126,827 137,806 147,787 151,777 157,754 157,786 156,825 156,796 155,757 155,766 155,806 153,841 153,816 153,776 151,762 151,786 151,826 150,860 150,836 150,796 149,764 149,806 149,846 147,861 147,816 147,776 145,769 145,786 145,826 144,861 144,836 144,796 144,770 145,775 149,782 142,796 129,819 127,825 120,834 111,848 116,855 130,874 137,885 149,904 149,890 148,856 148,816 147,776 147,767 147,776 147,816 147,856 147,896 145,903 145,866 145,826 145,786 144,770 144,796 144,836 144,876 143,902 143,886 143,846 143,806 141,773 141,816 141,856 141,896 139,901 139,866 139,826 139,786 138,776 138,796 138,836 138,876 137,900 137,886 137,846 137,806 135,778 135,816 135,856 133,899 133,866 133,826 133,786 132,781 132,796 132,836 132,876 131,898 131,886 131,846 131,806 129,784 129,816 129,856 127,897 127,866 127,826 126,786 126,796 126,836 126,876 125,896 125,886 125,846 125,806 123,789 123,816 123,856 121,895 121,866 121,826 120,791 120,836 120,876 119,895 119,886 119,846 119,806 117,793 117,816 117,856 115,894 115,866 115,826 114,796 114,836 114,876 113,893 113,886 113,846 113,806 111,799 111,816 111,856 109,893 109,866 109,826 108,801 108,836 108,876 107,892 107,886 107,846 105,803 105,816 105,856 103,891 103,866 103,826 102,805 102,836 102,876 101,891 101,846 99,806 99,816 99,856 97,891 97,866 97,826 96,808 96,836 96,876 95,890 95,846 93,809 93,816 93,856 91,890 91,866 91,826 90,810 90,836 90,876 89,890 89,846 87,811 87,856 85,890 85,866 85,826 84,813 84,836 84,876 83,890 83,846 81,814 81,856 79,890 79,866 79,826 78,815 78,836 78,876 77,890 77,846 75,816 75,856 73,890 73,866 73,826 72,817 72,836 72,876 71,890 71,846 69,817 69,856 67,890 67,866 67,826 66,819 66,836 66,876 65,890 65,846 63,819 63,856 61,890 61,866 61,826 60,820 60,836 60,876 59,890 59,846 57,821 57,856 55,891 55,866 54,822 54,836 54,876 53,891 53,846 51,823 51,856 49,891 49,866 48,823 48,836 48,876 47,891 47,846 45,824 45,856 43,891 43,866 42,825 42,836 42,876 41,891 41,846 39,825 39,856 37,891 37,866 36,826 36,836 36,876 35,891 35,846 33,827 33,856 31,891 31,866 30,828 30,836 30,876 29,891 29,846 27,828 27,856 25,891 25,866 24,829 24,836 24,876 23,891 23,846 21,829 21,856 19,891 19,866 18,830 18,836 18,876 17,891 17,846 15,831 15,856 13,891 13,866 12,831 12,876 11,891 11,846 9,830 9,856 7,891 7,866 6,830 6,836 6,876 5,891 5,846 3,829 3,856 1,892 1,866 0,829 0,836 0,876 -1,892 -1,886 -1,846 -3,828 -3,856 -5,892 -5,866 -6,828 -6,836 -6,876 -7,892 -7,886 -7,846 -9,827 -9,856 -11,892 -11,866 -12,827 -12,836 -12,876 -13,892 -13,886 -13,846 -15,826 -15,856 -17,893 -17,866 -18,825 -18,836 -18,876 -19,893 -19,886 -19,846 -21,824 -21,856 -23,893 -23,866 -24,824 -24,836 -24,876 -25,893 -25,886 -25,846 -27,823 -27,856 -29,894 -29,866 -30,822 -30,836 -30,876 -31,894 -31,886 -31,846 -33,821 -33,856 -35,895 -35,866 -35,826 -36,820 -36,836 -36,876 -37,895 -37,886 -37,846 -39,820 -39,856 -41,895 -41,866 -41,826 -42,819 -42,836 -42,876 -43,896 -43,886 -43,846 -45,818 -45,856 -47,897 -47,866 -47,826 -48,817 -48,836 -48,876 -49,897 -49,886 -49,846 -51,816 -51,856 -53,898 -53,866 -53,826 -54,815 -54,836 -54,876 -55,898 -55,886 -55,846 -57,813 -57,856 -59,900 -59,866 -59,826 -60,812 -60,836 -60,876 -61,900 -61,886 -61,846 -63,811 -63,856 -63,896 -63,901 -65,861 -65,826 -66,810 -66,836 -67,853 -67,846 -69,808 -69,816 -71,848 -71,826 -72,807 -72,836 -73,845 -75,805 -75,816 -77,839 -77,826 -78,804 -79,836 -81,802 -81,816 -83,830 -84,801 -85,826 -85,806 -87,799 -89,820 -90,797 -91,815 -91,806 -93,795 -95,807 -96,793 -97,803 -97,792 -97,803 -97,792 -97,803 -97,792" fill="none" stroke="#000000" stroke-width="3" /><path d="M -140,459 -136,454 -133,449 -136,454 -140,459 -125,437 -115,423 -95,407 -84,399 -72,393 -45,395 -21,400 5,395 32,391 56,390 82,392 108,395 117,402 127,410 145,429 151,434 156,441 167,451 177,465 181,471 191,482 192,480 189,480 190,476 186,478 189,474 184,476 187,470 182,474 186,469 180,472 184,465 177,470 183,463 175,468 181,460 172,467 180,458 170,465 178,454 167,463 177,452 165,461 175,448 162,460 174,446 160,458 173,442 157,456 172,441 155,455 160,450 170,436 152,453 169,435 164,440 149,452 155,446 167,431 146,451 167,429 160,436 143,449 151,441 165,424 140,448 164,423 155,431 138,446 147,437 162,419 135,445 159,421 162,417 151,427 131,444 143,433 160,413 134,439 128,443 155,417 160,410 147,423 125,442 138,429 157,407 130,434 122,441 150,412 157,405 143,419 119,440 134,424 155,400 126,430 116,439 146,408 155,398 138,415 112,438 130,420 153,394 121,426 109,437 114,432 142,404 153,392 134,410 105,436 126,416 151,388 145,393 117,422 102,436 109,428 138,400 150,386 130,406 98,435 121,412 149,381 141,389 113,417 95,434 105,424 133,395 148,379 126,402 97,430 91,434 117,407 147,375 137,385 109,413 87,434 101,419 129,391 146,373 121,398 93,426 83,433 113,403 141,375 145,369 133,381 104,409 79,433 97,415 125,387 144,366 117,393 89,422 75,432 80,427 109,399 137,371 143,362 128,376 100,405 71,432 92,411 121,383 142,360 113,389 85,417 68,431 76,423 104,395 133,366 140,356 124,372 96,400 68,429 63,431 88,407 116,378 140,354 109,385 80,413 59,431 72,419 100,390 128,362 139,349 120,368 92,396 63,424 55,431 84,402 112,374 138,347 133,352 104,381 76,409 51,431 68,415 96,386 124,358 137,342 116,364 87,392 59,420 46,431 51,427 80,398 108,370 136,340 128,348 100,376 72,405 41,432 63,410 92,382 120,354 134,337 111,359 83,388 55,416 37,433 47,422 75,394 104,366 133,335 124,344 96,372 68,400 39,429 32,433 59,406 87,378 116,349 131,332 107,355 79,383 51,412 27,434 43,418 71,390 99,361 129,330 120,340 92,368 63,396 35,424 23,434 55,402 83,373 111,345 127,327 103,351 75,379 46,407 17,435 39,414 67,386 95,357 124,329 126,325 116,335 87,364 59,392 31,420 13,435 22,426 51,398 79,369 107,341 124,321 99,347 70,375 42,403 14,431 8,436 34,410 63,381 91,353 119,325 124,319 111,331 83,359 55,388 27,416 3,437 18,422 46,393 75,365 103,337 121,316 95,342 66,371 38,399 10,427 -2,438 2,434 30,405 58,377 87,349 115,320 121,313 107,327 79,355 51,383 22,412 -8,439 14,417 42,389 70,361 99,332 119,309 90,338 62,366 34,395 5,423 -13,440 -2,429 26,401 54,373 82,345 111,316 118,308 103,323 75,351 46,379 18,407 -10,436 -19,441 10,413 38,385 66,357 95,328 116,303 86,334 58,362 29,390 1,419 -23,441 -7,425 22,397 50,369 78,340 107,312 116,301 99,318 70,347 42,375 14,403 -14,431 -26,440 5,409 34,381 62,352 90,324 114,297 110,301 82,330 54,358 25,386 -3,415 -29,439 -11,421 17,393 46,364 74,336 102,308 114,295 95,314 66,342 38,371 10,399 -19,427 -33,439 -27,433 1,405 29,376 58,348 86,320 112,291 106,297 78,325 49,354 21,382 -7,410 -36,438 -15,417 13,388 41,360 70,332 98,303 111,289 90,310 62,338 34,366 5,395 -23,423 -40,437 -31,429 -3,400 25,372 54,344 82,316 110,284 102,293 73,321 45,349 17,378 -12,406 -43,436 -19,412 9,384 37,356 66,328 94,299 109,282 86,306 58,334 29,362 1,390 -27,419 -47,436 -36,424 -7,396 21,368 49,340 78,311 106,283 108,278 97,289 69,317 41,345 12,373 -16,402 -44,430 -51,436 -24,408 5,380 33,352 61,323 90,295 107,276 82,301 54,330 25,358 -3,386 -31,415 -55,435 -40,420 -12,392 17,364 45,335 73,307 107,274 97,280 93,284 65,313 37,341 8,369 -20,398 -48,426 -59,435 -28,404 0,376 29,347 57,319 85,289 78,297 49,325 21,354 -7,382 -36,410 -62,434 -44,416 -16,388 12,359 41,331 69,303 76,293 61,308 32,337 4,365 -24,393 -53,422 -67,434 -60,428 -32,400 -4,371 25,343 53,315 71,295 45,321 17,349 -12,378 -40,406 -71,434 -48,412 -20,383 8,355 37,327 61,300 56,304 28,332 0,361 -29,389 -57,417 -76,435 -65,424 -36,395 -8,367 20,339 49,311 54,303 41,317 12,345 -16,373 -44,402 -72,430 -80,435 -53,407 -24,379 4,351 32,323 40,312 24,328 -4,357 -33,385 -61,413 -84,435 -69,419 -41,391 -12,363 16,335 32,318 8,341 -20,369 -48,398 -77,426 -89,436 -85,431 -57,403 -29,375 0,347 20,324 -9,352 -37,381 -65,409 -95,437 -73,415 -45,387 -16,359 12,330 15,326 4,337 -24,365 -53,393 -81,422 -101,439 -89,427 -61,399 -33,371 -4,342 7,328 -13,348 -41,376 -70,405 -98,433 -107,441 -77,411 -49,383 -21,354 3,329 -29,361 -57,389 -85,417 -114,443 -94,423 -65,395 -37,366 -9,338 -2,329 -17,344 -45,372 -74,400 -102,429 -123,448 -110,435 -82,407 -53,378 -25,350 -6,330 -33,357 -61,385 -89,413 -118,441 -134,455 -126,447 -98,419 -70,390 -41,362 -13,334 -11,329 -21,340 -50,368 -78,396 -106,424 -136,453 -114,431 -86,402 -58,374 -29,346 -13,328 -37,352 -65,381 -94,409 -122,437 -137,452 -121,429 -101,412 -82,397 -77,393 -60,373 -51,357 -54,344 -65,322 -71,306 -75,299 -83,271 -86,275 -82,272 -87,280 -79,275 -87,284 -77,277 -87,289 -75,280 -87,294 -74,282 -87,298 -71,284 -87,302 -80,295 -70,286 -87,306 -67,289 -84,306 -87,311 -76,299 -65,290 -87,314 -63,294 -79,310 -87,318 -72,303 -62,295 -87,323 -59,298 -75,314 -87,327 -67,308 -58,299 -86,330 -79,324 -55,302 -71,318 -86,335 -63,312 -53,303 -85,338 -75,328 -50,306 -67,323 -95,351 -106,364 -87,345 -59,316 -49,308 -79,338 -108,366 -113,375 -99,361 -71,332 -46,311 -62,327 -91,355 -118,384 -111,377 -83,349 -55,320 -45,312 -75,342 -103,371 -122,392 -95,365 -67,337 -42,315 -58,331 -87,359 -115,388 -125,400 -107,381 -79,353 -50,325 -41,316 -71,347 -99,375 -128,407 -119,398 -91,369 -62,341 -37,318 -54,335 -82,364 -111,392 -130,413 -103,386 -74,357 -46,329 -36,320 -67,351 -95,379 -123,407 -132,419 -115,402 -87,373 -58,345 -32,322 -50,340 -78,368 -106,396 -135,426 -127,418 -99,390 -70,361 -42,333 -30,323 -34,327 -62,355 -91,383 -119,412 -136,431 -111,406 -82,378 -54,349 -26,325 -45,344 -74,372 -102,400 -130,429 -137,436 -123,422 -94,394 -66,366 -38,337 -24,325 -30,331 -58,359 -87,388 -115,416 -139,443 -135,439 -106,410 -78,382 -50,354 -20,327 -41,348 -70,376 -98,405 -126,433 -140,448 -118,427 -90,398 -62,370 -33,342 -18,328 -26,335 -54,364 -82,392 -111,420 -139,448 -141,453 -130,443 -102,415 -74,386 -45,358 -13,328 -37,352 -65,381 -94,409 -122,437 -142,458 -114,431 -86,402 -58,374 -29,346 -11,329 -21,340 -50,368 -78,396 -106,424 -135,453 -142,460 -135,453 -142,460 -135,453 -142,460" fill="none" stroke="#f0f0f0" stroke-width="3" /><path d="M -145,462 -140,466 -136,470 -140,466 -145,462 -131,474 -122,481 -113,478 -108,469 -81,470 -60,473 -41,471 -11,467 10,465 32,467 54,469 73,472 95,478 113,487 129,498 145,511 157,527 165,548 171,572 176,592 203,591 218,588 215,606 211,646 211,616 218,574 214,586 209,626 207,652 207,636 210,596 217,564 207,606 205,646 203,654 203,616 211,576 213,564 206,586 201,626 199,654 199,636 202,596 211,564 182,570 170,569 166,567 138,567 112,567 95,569 70,588 46,608 25,628 5,648 -13,668 -29,688 -42,708 -50,723 -40,738 -31,764 -28,778 -26,800 -32,805 -50,809 -66,810 -79,805 -105,795 -96,806 -70,833 -102,796 -109,784 -75,826 -64,836 -83,816 -108,781 -89,806 -56,840 -95,796 -105,780 -101,786 -68,826 -50,842 -75,816 -102,779 -81,806 -45,843 -52,836 -87,796 -98,779 -93,786 -60,826 -39,845 -67,816 -95,778 -73,806 -36,845 -45,836 -80,796 -92,777 -86,786 -53,826 -32,846 -60,816 -89,776 -66,806 -28,847 -37,836 -72,796 -86,774 -78,786 -45,826 -24,847 -52,816 -83,773 -58,806 -20,848 -29,836 -64,796 -80,771 -70,786 -37,826 -17,848 -45,816 -76,776 -78,770 -51,806 -13,848 -22,836 -57,796 -76,767 -63,786 -30,826 -9,848 -37,816 -68,776 -74,764 -43,806 -5,848 -14,836 -49,796 -73,759 -55,786 -22,826 -1,848 -29,816 -60,776 -74,751 -65,766 -35,806 2,848 -7,836 -42,796 -70,756 -71,750 -48,786 -15,826 6,848 -22,816 -53,776 -67,750 -58,766 -28,806 8,848 -20,817 -29,804 -25,798 -22,785 -27,760 -43,732 -61,708 -78,691 -96,673 -99,645 -99,619 -97,593 -111,573 -124,553 -135,533 -135,525 -128,503 -136,493 -152,481 -135,456 -128,445 -137,456 -162,490 -127,446 -117,438 -150,476 -171,510 -140,466 -110,435 -129,456 -160,496 -176,521 -180,533 -177,526 -151,486 -119,446 -103,432 -142,476 -169,516 -185,551 -162,506 -133,466 -99,431 -122,456 -153,496 -177,536 -188,564 -191,579 -187,566 -170,526 -144,486 -112,446 -93,429 -100,436 -135,476 -162,516 -181,556 -193,595 -193,612 -189,586 -175,546 -154,506 -125,466 -88,428 -114,456 -145,496 -169,536 -184,576 -192,616 -192,630 -190,641 -188,606 -179,566 -162,526 -136,486 -104,446 -83,427 -92,436 -127,476 -154,516 -173,556 -185,596 -188,636 -186,646 -186,626 -181,586 -167,546 -146,506 -117,466 -78,426 -106,456 -137,496 -161,536 -176,576 -184,616 -182,650 -180,606 -171,566 -154,526 -128,486 -96,446 -75,426 -85,436 -120,476 -147,516 -166,556 -178,596 -181,636 -179,653 -179,626 -174,586 -160,546 -139,506 -110,466 -70,425 -99,456 -130,496 -154,536 -169,576 -177,616 -174,657 -175,646 -173,606 -164,566 -147,526 -121,486 -89,446 -66,425 -77,436 -112,476 -139,516 -158,556 -170,596 -173,636 -170,662 -171,626 -166,586 -152,546 -131,506 -102,466 -62,425 -91,456 -122,496 -146,536 -161,576 -169,616 -168,656 -165,666 -167,646 -165,606 -156,566 -139,526 -113,486 -81,446 -58,425 -69,436 -104,476 -131,516 -150,556 -162,596 -165,636 -160,670 -163,626 -158,586 -144,546 -123,506 -94,466 -55,425 -84,456 -115,496 -139,536 -154,576 -162,616 -161,656 -157,674 -160,646 -158,606 -149,566 -132,526 -106,486 -74,446 -51,425 -62,436 -97,476 -124,516 -143,556 -155,596 -158,636 -152,678 -154,666 -156,626 -151,586 -137,546 -116,506 -87,466 -47,425 -76,456 -107,496 -131,536 -146,576 -154,616 -153,656 -147,682 -152,646 -150,606 -141,566 -124,526 -98,486 -66,446 -44,426 -54,436 -89,476 -116,516 -135,556 -147,596 -150,636 -146,676 -142,686 -146,666 -148,626 -143,586 -129,546 -108,506 -79,466 -40,426 -68,456 -99,496 -123,536 -138,576 -146,616 -145,656 -137,691 -144,646 -142,606 -133,566 -116,526 -90,486 -58,446 -37,426 -47,436 -82,476 -109,516 -128,556 -140,596 -143,636 -139,676 -133,694 -139,666 -141,626 -136,586 -122,546 -101,506 -72,466 -34,427 -61,456 -92,496 -116,536 -131,576 -139,616 -138,656 -128,698 -131,686 -137,646 -135,606 -126,566 -109,526 -83,486 -51,446 -31,428 -39,436 -74,476 -101,516 -120,556 -132,596 -135,636 -131,676 -122,702 -131,666 -133,626 -128,586 -114,546 -93,506 -64,466 -27,428 -53,456 -84,496 -108,536 -123,576 -131,616 -130,656 -122,696 -117,706 -123,686 -129,646 -127,606 -118,566 -101,526 -75,486 -43,446 -24,429 -31,436 -66,476 -93,516 -112,556 -124,596 -127,636 -123,676 -111,711 -123,666 -125,626 -120,586 -106,546 -85,506 -56,466 -21,429 -46,456 -77,496 -101,536 -116,576 -124,616 -123,656 -115,696 -107,714 -116,686 -122,646 -120,606 -111,566 -94,526 -68,486 -36,446 -18,430 -24,436 -59,476 -86,516 -105,556 -117,596 -120,636 -116,676 -102,718 -106,706 -116,666 -118,626 -113,586 -99,546 -78,506 -49,466 -13,429 -38,456 -69,496 -93,536 -108,576 -116,616 -115,656 -107,696 -96,723 -108,686 -114,646 -112,606 -103,566 -86,526 -60,486 -28,446 -8,428 -16,436 -51,476 -78,516 -97,556 -109,596 -112,636 -108,676 -96,716 -88,731 -98,706 -108,666 -110,626 -105,586 -91,546 -70,506 -41,466 -3,427 -30,456 -61,496 -85,536 -100,576 -108,616 -107,656 -99,696 -79,741 -86,726 -100,686 -106,646 -104,606 -95,566 -78,526 -52,486 -20,446 0,427 -9,436 -44,476 -71,516 -90,556 -102,596 -105,636 -101,676 -89,716 -78,742 -50,785 -15,825 4,848 -15,826 -48,786 -73,746 -91,706 -101,666 -103,626 -98,586 -84,546 -63,506 -34,466 5,426 -23,456 -54,496 -78,536 -93,576 -101,616 -100,656 -92,696 -77,736 -53,776 -22,816 8,848 -28,806 -58,766 -79,726 -93,686 -99,646 -97,606 -88,566 -71,526 -45,486 -13,446 9,426 -1,436 -36,476 -63,516 -82,556 -94,596 -97,636 -93,676 -81,716 -62,756 -34,796 1,836 12,847 -7,826 -40,786 -65,746 -83,706 -93,666 -95,626 -90,586 -76,546 -55,506 -26,466 14,425 -15,456 -46,496 -70,536 -85,576 -93,616 -92,656 -84,696 -69,736 -45,776 -14,816 16,847 -20,806 -50,766 -71,726 -85,686 -91,646 -89,606 -80,566 -63,526 -37,486 -5,446 18,424 7,436 -28,476 -55,516 -74,556 -86,596 -89,636 -85,676 -73,716 -54,756 -26,796 9,836 20,847 1,826 -32,786 -57,746 -75,706 -85,666 -87,626 -82,586 -68,546 -47,506 -18,466 21,424 -8,456 -39,496 -63,536 -78,576 -86,616 -85,656 -77,696 -62,736 -38,776 -7,816 23,846 -13,806 -43,766 -64,726 -78,686 -84,646 -82,606 -73,566 -56,526 -30,486 2,446 25,424 14,436 -21,476 -48,516 -67,556 -79,596 -82,636 -78,676 -66,716 -47,756 -19,796 16,836 27,846 8,826 -25,786 -50,746 -68,706 -78,666 -80,626 -75,586 -61,546 -40,506 -11,466 29,423 0,456 -31,496 -55,536 -70,576 -78,616 -77,656 -69,696 -54,736 -30,776 1,816 31,846 -5,806 -35,766 -56,726 -70,686 -76,646 -74,606 -65,566 -48,526 -22,486 10,446 33,423 22,436 -13,476 -40,516 -59,556 -71,596 -74,636 -70,676 -58,716 -39,756 -11,796 24,836 35,845 16,826 -17,786 -42,746 -60,706 -70,666 -72,626 -67,586 -53,546 -32,506 -3,466 37,423 8,456 -23,496 -47,536 -62,576 -70,616 -69,656 -61,696 -46,736 -22,776 9,816 38,845 2,806 -28,766 -49,726 -63,686 -69,646 -67,606 -58,566 -41,526 -15,486 17,446 40,422 29,436 -6,476 -33,516 -52,556 -64,596 -67,636 -63,676 -51,716 -32,756 -4,796 31,836 42,845 23,826 -10,786 -35,746 -53,706 -63,666 -65,626 -60,586 -46,546 -25,506 4,466 44,422 15,456 -16,496 -40,536 -55,576 -63,616 -62,656 -54,696 -39,736 -15,776 16,816 45,844 10,806 -20,766 -41,726 -55,686 -61,646 -59,606 -50,566 -33,526 -7,486 25,446 48,422 37,436 2,476 -25,516 -44,556 -56,596 -59,636 -55,676 -43,716 -24,756 4,796 39,836 48,843 31,826 -2,786 -27,746 -45,706 -55,666 -57,626 -52,586 -38,546 -17,506 12,466 52,422 23,456 -8,496 -32,536 -47,576 -55,616 -54,656 -46,696 -31,736 -7,776 24,816 52,843 18,806 -12,766 -33,726 -47,686 -53,646 -51,606 -42,566 -25,526 1,486 33,446 56,422 45,436 10,476 -17,516 -36,556 -48,596 -51,636 -47,676 -35,716 -16,756 12,796 47,836 54,842 38,826 5,786 -20,746 -38,706 -48,666 -50,626 -45,586 -31,546 -10,506 19,466 59,422 30,456 -1,496 -25,536 -40,576 -48,616 -47,656 -39,696 -24,736 0,776 31,816 57,841 25,806 -5,766 -26,726 -40,686 -46,646 -44,606 -35,566 -18,526 8,486 40,446 63,422 52,436 17,476 -10,516 -29,556 -41,596 -44,636 -40,676 -28,716 -9,756 19,796 60,840 46,826 13,786 -12,746 -30,706 -40,666 -42,626 -37,586 -23,546 -2,506 27,466 67,422 38,456 7,496 -17,536 -32,576 -40,616 -39,656 -31,696 -16,736 8,776 39,816 64,840 33,806 3,766 -18,726 -32,686 -38,646 -36,606 -27,566 -10,526 16,486 48,446 71,422 60,436 25,476 -2,516 -21,556 -33,596 -36,636 -32,676 -20,716 -1,756 27,796 67,839 54,826 21,786 -4,746 -22,706 -32,666 -34,626 -29,586 -15,546 6,506 35,466 75,422 46,456 15,496 -9,536 -24,576 -32,616 -31,656 -23,696 -8,736 16,776 47,816 69,838 40,806 10,766 -11,726 -25,686 -31,646 -29,606 -20,566 -3,526 23,486 55,446 78,423 67,436 32,476 5,516 -14,556 -26,596 -29,636 -25,676 -13,716 6,756 34,796 72,837 61,826 28,786 3,746 -15,706 -25,666 -27,626 -22,586 -8,546 13,506 42,466 82,423 53,456 22,496 -2,536 -17,576 -25,616 -24,656 -16,696 -1,736 23,776 54,816 74,835 48,806 18,766 -3,726 -17,686 -23,646 -21,606 -12,566 5,526 31,486 63,446 86,423 75,436 40,476 13,516 -6,556 -18,596 -21,636 -17,676 -5,716 14,756 42,796 77,834 69,826 36,786 11,746 -7,706 -17,666 -19,626 -14,586 0,546 21,506 50,466 90,424 61,456 30,496 6,536 -9,576 -17,616 -16,656 -8,696 7,736 31,776 62,816 80,833 56,806 26,766 5,726 -9,686 -15,646 -13,606 -4,566 13,526 39,486 71,446 94,424 83,436 48,476 21,516 2,556 -10,596 -13,636 -9,676 3,716 22,756 50,796 82,832 76,826 43,786 18,746 0,706 -10,666 -12,626 -7,586 7,546 28,506 57,466 97,424 68,456 37,496 13,536 -2,576 -10,616 -9,656 -1,696 14,736 38,776 69,816 85,831 63,806 33,766 12,726 -2,686 -8,646 -6,606 3,566 20,526 46,486 78,446 101,425 90,436 55,476 28,516 9,556 -3,596 -6,636 -2,676 10,716 29,756 57,796 88,830 51,786 26,746 8,706 -2,666 -4,626 1,586 15,546 36,506 65,466 104,426 76,456 45,496 21,536 6,576 -2,616 -1,656 7,696 22,736 46,776 77,816 90,828 71,806 41,766 20,726 6,686 0,646 2,606 11,566 28,526 54,486 86,446 108,426 98,436 63,476 36,516 17,556 5,596 2,636 6,676 18,716 37,756 65,796 93,827 59,786 34,746 16,706 6,666 4,626 9,586 23,546 44,506 73,466 111,427 84,456 53,496 29,536 14,576 6,616 7,656 15,696 30,736 54,776 85,816 95,826 78,806 48,766 27,726 13,686 7,646 9,606 18,566 35,526 61,486 93,446 114,427 105,436 70,476 43,516 24,556 12,596 9,636 13,676 25,716 44,756 72,796 98,824 66,786 41,746 23,706 13,666 11,626 16,586 30,546 51,506 80,466 117,428 91,456 60,496 36,536 21,576 13,616 14,656 22,696 37,736 61,776 92,816 101,823 86,806 56,766 35,726 21,686 15,646 17,606 26,566 43,526 69,486 101,446 120,429 113,436 78,476 51,516 32,556 20,596 17,636 21,676 33,716 52,756 80,796 103,821 74,786 49,746 31,706 21,666 19,626 24,586 38,546 59,506 88,466 123,430 99,456 68,496 44,536 29,576 21,616 22,656 30,696 45,736 69,776 106,820 94,806 64,766 43,726 29,686 23,646 25,606 34,566 51,526 77,486 109,446 126,431 86,476 59,516 40,556 28,596 25,636 29,676 41,716 60,756 88,796 108,819 81,786 56,746 38,706 28,666 26,626 31,586 45,546 66,506 95,466 129,431 106,456 75,496 51,536 36,576 28,616 29,656 37,696 52,736 76,776 110,817 101,806 71,766 50,726 36,686 30,646 32,606 41,566 58,526 84,486 116,446 132,432 93,476 66,516 47,556 35,596 32,636 36,676 48,716 67,756 95,796 113,816 89,786 64,746 46,706 36,666 34,626 39,586 53,546 74,506 103,466 135,433 114,456 83,496 59,536 44,576 36,616 37,656 45,696 60,736 84,776 116,814 109,806 79,766 58,726 44,686 38,646 40,606 49,566 66,526 92,486 124,446 138,434 101,476 74,516 55,556 43,596 40,636 44,676 56,716 75,756 103,796 118,812 97,786 72,746 54,706 44,666 42,626 47,586 61,546 82,506 111,466 140,436 122,456 91,496 67,536 52,576 44,616 45,656 53,696 68,736 92,776 120,811 86,766 65,726 51,686 45,646 47,606 56,566 73,526 99,486 131,446 142,437 108,476 81,516 62,556 50,596 47,636 51,676 63,716 82,756 110,796 122,809 104,786 79,746 61,706 51,666 49,626 54,586 68,546 89,506 118,466 145,438 129,456 98,496 74,536 59,576 51,616 52,656 60,696 75,736 99,776 125,807 94,766 73,726 59,686 53,646 55,606 64,566 81,526 107,486 139,446 148,439 116,476 89,516 70,556 58,596 55,636 59,676 71,716 90,756 118,796 127,805 112,786 87,746 69,706 59,666 57,626 62,586 76,546 97,506 126,466 151,440 137,456 106,496 82,536 67,576 59,616 60,656 68,696 83,736 107,776 129,803 102,766 81,726 67,686 61,646 63,606 72,566 89,526 115,486 153,442 124,476 97,516 78,556 66,596 63,636 67,676 79,716 98,756 126,796 132,802 119,786 94,746 76,706 66,666 64,626 69,586 83,546 104,506 133,466 155,443 144,456 113,496 89,536 74,576 66,616 67,656 75,696 90,736 114,776 134,800 109,766 88,726 74,686 68,646 70,606 79,566 96,526 122,486 158,444 131,476 104,516 85,556 73,596 70,636 74,676 86,716 105,756 136,798 127,786 102,746 84,706 74,666 72,626 77,586 91,546 112,506 141,466 160,446 152,456 121,496 97,536 82,576 74,616 75,656 83,696 98,736 122,776 139,796 117,766 96,726 82,686 76,646 78,606 87,566 104,526 130,486 163,448 139,476 112,516 93,556 81,596 78,636 82,676 94,716 113,756 141,794 135,786 110,746 92,706 82,666 80,626 85,586 99,546 120,506 149,466 166,449 160,456 129,496 105,536 90,576 82,616 83,656 91,696 106,736 130,776 143,793 124,766 103,726 89,686 83,646 85,606 94,566 111,526 137,486 167,451 146,476 119,516 100,556 88,596 85,636 89,676 101,716 120,756 146,791 117,746 99,706 89,666 87,626 92,586 106,546 127,506 156,466 170,452 136,496 112,536 97,576 89,616 90,656 98,696 113,736 137,776 148,789 132,766 111,726 97,686 91,646 93,606 102,566 119,526 145,486 172,454 154,476 127,516 108,556 96,596 93,636 97,676 109,716 128,756 151,787 125,746 107,706 97,666 95,626 100,586 114,546 135,506 164,466 175,456 144,496 120,536 105,576 97,616 98,656 106,696 121,736 145,776 153,785 140,766 119,726 105,686 99,646 101,606 110,566 127,526 153,486 176,459 162,476 135,516 116,556 104,596 101,636 105,676 117,716 136,756 155,783 132,746 114,706 104,666 102,626 107,586 121,546 142,506 171,466 178,460 151,496 127,536 112,576 104,616 105,656 113,696 128,736 152,776 158,781 147,766 126,726 112,686 106,646 108,606 117,566 134,526 160,486 180,462 169,476 142,516 123,556 111,596 108,636 112,676 124,716 143,756 160,779 140,746 122,706 112,666 110,626 115,586 129,546 150,506 183,464 159,496 135,536 120,576 112,616 113,656 121,696 136,736 162,776 155,766 134,726 120,686 114,646 116,606 125,566 142,526 168,486 185,466 177,476 150,516 131,556 119,596 116,636 120,676 132,716 151,756 165,774 148,746 130,706 120,666 118,626 123,586 137,546 158,506 187,469 167,496 143,536 128,576 120,616 121,656 129,696 144,736 167,773 162,766 141,726 127,686 121,646 123,606 132,566 149,526 175,486 188,471 157,516 138,556 126,596 123,636 127,676 139,716 158,756 169,770 155,746 137,706 127,666 125,626 130,586 144,546 165,506 190,473 174,496 150,536 135,576 127,616 128,656 136,696 151,736 171,767 149,726 135,686 129,646 131,606 140,566 157,526 183,486 192,476 165,516 146,556 134,596 131,636 135,676 147,716 170,759 163,746 145,706 135,666 133,626 138,586 152,546 173,506 195,478 182,496 158,536 143,576 135,616 136,656 144,696 159,736 170,752 157,726 143,686 137,646 139,606 148,566 165,526 191,486 196,481 173,516 154,556 142,596 139,636 143,676 155,716 170,746 152,706 142,666 140,626 145,586 159,546 180,506 198,483 189,496 165,536 150,576 142,616 143,656 151,696 169,737 164,726 150,686 144,646 146,606 155,566 172,526 200,486 180,516 161,556 149,596 146,636 150,676 162,716 169,728 160,706 150,666 148,626 153,586 167,546 188,506 201,489 197,496 173,536 158,576 150,616 151,656 159,696 168,718 158,686 152,646 154,606 163,566 180,526 203,492 188,516 169,556 157,596 154,636 158,676 168,705 158,666 156,626 161,586 175,546 196,506 205,496 181,536 166,576 158,616 159,656 167,693 165,686 159,646 161,606 170,566 187,526 206,499 195,516 176,556 164,596 161,636 167,678 165,666 163,626 168,586 182,546 206,504 188,536 173,576 165,616 166,656 169,667 167,646 169,606 178,566 195,526 208,508 203,516 184,556 172,596 169,636 172,661 171,626 176,586 190,546 209,513 196,536 181,576 173,616 176,659 175,646 177,606 186,566 203,526 210,518 192,556 180,596 177,636 179,658 178,626 183,586 197,546 211,522 203,536 188,576 180,616 183,657 182,646 184,606 193,566 212,527 199,556 187,596 184,636 187,656 186,626 191,586 205,546 213,533 196,576 188,616 191,656 190,646 192,606 201,566 214,539 207,556 195,596 192,636 195,655 194,626 199,586 215,546 204,576 196,616 198,655 197,646 199,606 208,566 215,552 202,596 199,636 202,655 201,626 206,586 216,560 211,576 203,616 204,655 204,649 204,643 204,649 204,655" fill="none" stroke="#f0f0f0" stroke-width="3" /><path d="M -71,225 -70,219 -69,213 -70,219 -71,225 -67,202 -61,177 -56,168 -31,153 -15,146 -17,166 -17,194 -19,176 -18,141 -19,186 -20,196 -22,156 -20,136 -23,166 -23,198 -25,176 -22,132 -24,146 -25,186 -26,200 -28,156 -24,129 -29,166 -28,202 -31,176 -28,136 -27,126 -30,146 -31,186 -31,204 -32,196 -34,156 -29,123 -35,166 -34,205 -37,176 -34,136 -31,121 -36,146 -37,186 -36,207 -38,196 -40,156 -34,120 -36,126 -41,166 -39,208 -43,176 -40,136 -36,117 -42,146 -43,186 -42,209 -44,196 -46,156 -39,116 -42,126 -47,166 -44,210 -49,176 -46,136 -42,116 -48,146 -49,186 -45,210 -56,183 -56,168 -58,159 -59,153 -82,142 -90,165 -95,184 -95,166 -90,133 -94,156 -90,199 -91,186 -90,146 -86,126 -88,136 -91,176 -85,208 -89,166 -84,126 -81,121 -88,156 -86,196 -80,216 -85,186 -84,146 -77,118 -82,136 -85,176 -79,216 -75,222 -79,206 -83,166 -78,126 -74,116 -82,156 -80,196 -71,227 -79,186 -78,146 -70,115 -76,136 -79,176 -73,216 -68,225 -73,206 -77,166 -72,126 -67,114 -76,156 -74,196 -65,225 -73,186 -72,146 -64,114 -70,136 -73,176 -67,216 -63,223 -67,206 -71,166 -66,126 -61,113 -70,156 -68,196 -60,222 -67,186 -66,146 -58,113 -64,136 -67,176 -58,220 -61,206 -65,166 -60,126 -55,112 -64,156 -62,196 -55,219 -61,186 -60,146 -52,113 -58,136 -61,176 -53,217 -55,206 -59,166 -54,126 -49,113 -58,156 -56,196 -50,216 -55,186 -54,146 -46,113 -52,136 -55,176 -48,214 -49,206 -53,166 -48,126 -43,114 -52,156 -50,196 -45,212 -49,186 -48,146 -40,115 -46,136 -49,176 -44,211 -45,205 -46,199 -45,205 -44,211" fill="none" stroke="#f0f0f0" stroke-width="3" /><path d="M 23,194 29,192 34,190 29,192 23,194 47,185 57,179 60,172 81,183 107,191 118,195 116,156 116,146 115,166 117,202 113,176 114,140 113,146 113,186 115,207 112,196 110,156 113,134 109,166 114,206 113,211 107,176 110,136 110,131 107,146 107,186 111,215 106,196 104,156 108,127 103,166 108,206 109,218 101,176 104,136 106,125 101,146 101,186 107,220 100,196 98,156 104,123 97,166 102,206 104,222 102,216 95,176 98,136 102,120 95,146 95,186 102,224 94,196 92,156 99,119 97,126 91,166 96,206 100,226 96,216 89,176 92,136 97,117 89,146 89,186 97,226 88,196 86,156 94,116 91,126 85,166 90,206 93,224 90,216 83,176 86,136 92,114 83,146 83,186 90,223 82,196 80,156 89,114 85,126 79,166 84,206 86,221 77,176 80,136 86,113 77,146 77,186 83,220 76,196 74,156 83,112 79,126 73,166 78,206 79,219 71,176 74,136 81,111 71,146 71,186 76,218 70,196 68,156 77,116 78,111 73,126 67,166 72,206 73,218 65,176 68,136 75,110 65,146 65,186 70,217 64,196 62,156 71,116 72,110 67,126 61,166 66,206 66,216 59,176 62,136 69,110 59,146 59,186 63,215 58,196 56,156 65,116 66,110 61,126 55,166 60,206 60,214 53,176 56,136 63,109 53,146 53,186 56,213 52,196 50,156 59,116 60,110 55,126 49,166 54,206 53,212 47,176 50,136 57,110 47,146 47,186 50,211 46,196 44,156 53,116 54,110 49,126 43,166 46,209 41,176 44,136 51,111 41,146 41,186 43,208 40,196 38,156 47,112 43,126 37,166 40,206 35,176 38,136 44,113 35,146 35,186 36,204 34,196 32,156 40,115 37,126 31,166 32,201 29,176 32,136 36,118 29,146 29,186 29,199 26,156 32,121 25,166 25,197 23,176 26,136 27,127 23,146 23,186 24,196 22,167 19,172 19,166 24,131 20,156 22,196 22,190 22,184 22,190 22,196" fill="none" stroke="#f0f0f0" stroke-width="3" /><path d="M 40,206 45,203 50,200 45,203 40,206 65,191 72,221 87,205 89,201 69,221 83,204 90,197 92,192 75,209 63,221 66,215 92,189 93,185 86,192 59,219 78,198 93,183 69,204 56,217 61,209 89,181 92,178 80,187 51,216 72,192 91,173 63,198 48,214 55,204 83,176 89,170 75,181 44,212 66,187 87,166 58,192 41,209 49,198 78,170 84,163 69,176 37,207 61,181 81,161 62,184 51,154 38,167 37,171 44,164 54,154 58,153 52,159 36,175 35,178 61,153 41,176 35,181 49,170 66,153 58,164 35,187 66,159 70,154 46,181 35,192 55,176 75,156 63,170 35,198 44,192 72,164 78,158 52,187 37,202 61,181 81,161 69,176 41,204 37,207" fill="none" stroke="#000000" stroke-width="3" /><path d="M -59,220 -57,214 -56,208 -57,214 -59,220 -52,192 -51,176 -71,168 -59,156 -55,156 -67,167 -72,172 -58,161 -53,156 -72,178 -48,157 -61,173 -71,183 -53,167 -43,158 -71,188 -64,184 -41,161 -55,178 -70,192 -47,173 -38,163 -68,197 -58,190 -36,167 -50,184 -67,201 -41,178 -34,171 -61,201 -65,205 -53,195 -33,176 -44,190 -64,209 -33,182 -34,185 -55,207 -62,214 -47,201 -36,190 -61,218 -37,197 -43,205 -51,217 -38,204 -38,200 -50,212 -60,222 -55,218 -51,214 -55,218 -60,222" fill="none" stroke="#000000" stroke-width="3" /><path d="M -49,183 -53,175 -49,183 -53,175 -49,183 -53,175 -49,184 -50,194 -45,192 -52,190 -44,187 -53,187 -44,182 -55,184 -45,177 -56,181 -46,173 -57,179 -50,169 -58,177 -54,168 -60,175 -60,171" fill="none" stroke="#d8ccc6" stroke-width="3" /><path d="M -41,101 -37,95 -39,103 -33,96 -37,105 -31,97 -34,107 -28,98 -32,109 -25,100 -29,110 -23,102 -26,111 -20,103 -24,113 -18,105 -23,115 -16,107 -21,118 -14,110 -19,120 -13,112 -18,122 -11,115 -16,124 -10,118 -14,126 -9,122" fill="none" stroke="#d8ccc6" stroke-width="3" /><path d="M 82,41 83,47 84,53 83,47 82,41 85,54 85,69 71,52 77,57 91,67 73,45 95,63 90,58 77,40 85,49 99,59 79,38 83,43 87,47 83,43 79,38" fill="none" stroke="#d8ccc6" stroke-width="3" /><path d="M 120,127 122,130 117,124 123,124 115,122 122,120 114,119 121,116 112,117 119,112 110,115 117,109 108,112 115,105 106,110 112,103 103,109 109,101 101,107 105,98 98,105 102,97 95,103 98,95 93,101 94,95 91,100 90,95 89,98 86,96" fill="none" stroke="#d8ccc6" stroke-width="3" /><path d="M 71,170 64,166 71,170 64,166 71,170 64,166 65,170 67,164 66,172 72,164 67,173 75,166 68,175 78,169 69,177 80,172 70,178 80,177 72,180 79,181 74,182" fill="none" stroke="#d8ccc6" stroke-width="3" /><path d="M 139,267 143,272 147,277 143,272 139,267 155,288 173,285 175,294 177,312 175,304 164,274 172,315 164,287 157,271 164,297 165,313 164,308 150,268 153,279 158,310 153,290 143,265 155,309 147,281 137,266 141,282 151,306 142,272 140,264 142,272 140,264 142,272 140,264" fill="none" stroke="#d8ccc6" stroke-width="3" /><path d="M 251,616 255,610 251,616 255,610 251,616 255,610 256,619 254,608 259,618 254,606 262,615 255,604 264,612 255,603 265,609 256,601 266,605 256,599 268,602 257,596 269,599 258,594 270,596 258,592 270,593 259,589 271,590 259,587 272,587 260,584 272,584 260,581 273,581 261,579 273,578 261,576 274,575 262,573 274,572 262,570 274,569 262,567 275,566 263,564 275,563 263,562 275,560 263,559 276,557 264,556 276,554 264,553 276,551 264,550 276,548 264,547 276,544 264,545 276,541 263,542 276,538 263,539 276,535 263,536 275,532 263,534 275,529 262,531 274,526 262,528 274,523 261,525 273,520 261,522 272,517 260,520 272,514 260,517 271,511 259,514 270,509 258,512 270,506 257,509 269,503 256,507 268,500 256,504 267,497 255,502 266,494 254,499 265,491 253,496 264,488 251,494 262,486 250,491 261,483 249,488 260,480 248,486 258,477 247,483 257,475 246,480 255,472 245,478 254,470 244,475 252,467 242,473 250,464 241,470 249,462 240,468 247,460 238,465 245,457 236,463 243,455 235,461 241,452 233,459 239,450 231,457 236,448 229,455 234,446 227,453 232,444 225,451 229,442 223,450 227,440 221,449 224,438 218,447 222,436 216,446 219,435 214,445 216,434 211,443 213,433 208,442 210,433 205,441 207,433 202,440 204,433 199,439 203,434 195,437 203,434 195,437 203,434 195,437" fill="none" stroke="#d8ccc6" stroke-width="3" /><path d="M 318,660 317,653 318,660 317,653 318,660 317,653 314,657 317,648 311,654 317,647 308,652 316,644 306,650 314,642 304,648 312,640 302,647 310,637 300,645 307,635 298,643 305,633 296,642 302,632 294,641 300,630 292,640 297,629 290,638 294,627 287,637 291,626 285,637 288,626 282,636 285,625 280,635 282,624 277,635 279,623 274,635 276,623 272,634 273,622 269,634 270,622 266,633 267,621 264,633 264,621 261,633 261,621 259,633 258,622 256,633 254,622 254,634 251,623 251,634 248,624 248,635 245,625 246,635 243,625 244,636 240,626 241,637 237,627 239,638 233,628 237,638 230,629 235,639 227,631 233,640 224,633 231,640 222,635 230,640 220,639 228,639 221,643 228,639 221,643 228,639 221,643" fill="none" stroke="#d8ccc6" stroke-width="3" /><path d="M -207,612 -213,616 -207,612 -213,616 -207,612 -213,616 -205,609 -216,613 -205,607 -217,610 -205,604 -217,607 -204,601 -218,604 -204,599 -218,601 -205,596 -219,598 -205,593 -219,595 -205,591 -219,592 -205,588 -219,589 -206,585 -219,586 -206,582 -219,583 -206,579 -219,580 -206,577 -219,577 -206,574 -219,574 -206,571 -219,571 -206,568 -219,568 -206,565 -219,565 -206,563 -218,562 -205,560 -218,559 -205,557 -218,556 -204,554 -217,553 -204,551 -217,550 -203,549 -216,547 -203,546 -216,544 -202,543 -215,541 -202,541 -215,538 -201,538 -214,535 -200,535 -213,532 -200,532 -212,529 -199,530 -212,526 -198,527 -211,523 -197,524 -210,520 -196,521 -209,518 -196,519 -208,515 -195,516 -207,512 -194,513 -206,509 -193,511 -205,506 -192,508 -204,504 -191,506 -203,501 -190,503 -201,498 -189,501 -200,495 -187,498 -199,493 -186,496 -198,490 -184,493 -196,487 -183,491 -195,485 -181,488 -193,482 -180,485 -192,479 -178,483 -190,477 -177,480 -189,474 -175,478 -187,471 -174,475 -186,469 -173,473 -184,466 -171,471 -183,464 -170,468 -181,462 -169,466 -179,459 -168,463 -177,456 -167,461 -176,454 -166,458 -174,451 -165,456 -172,449 -166,454 -168,447 -166,454 -168,447 -166,454 -168,447" fill="none" stroke="#d8ccc6" stroke-width="3" /><path d="M -94,384 -96,390 -99,395 -101,401 -103,406 -105,412 -105,420 -105,414 -104,408 -102,403 -100,397 -97,392 -94,384 -92,378 -89,373 -87,367 -89,370 -89,375 -94,379 -90,380 -95,380 -91,383 -96,382 -92,386 -97,385 -93,389 -98,388 -94,391 -100,390 -95,394 -101,392 -96,397 -102,395 -97,400 -103,398 -98,402 -105,401 -99,405 -106,404 -100,408 -107,406 -100,410 -109,409 -100,413 -110,412 -99,415 -111,415 -98,418 -112,418 -97,421 -113,421 -96,423 -115,424 -95,426 -116,427 -95,428 -116,429 -111,432 -112,437 -116,441 -118,444 -121,449 -123,452 -125,456 -128,461 -130,465 -132,467 -131,470 -131,463 -129,468 -131,460 -127,465 -130,458 -126,463 -130,456 -124,460 -129,454 -122,458 -128,451 -120,456 -127,450 -119,454 -122,449 -118,446 -115,442 -112,440 -107,438 -102,436 -97,435 -92,435 -88,435 -84,436 -91,433 -97,431 -103,432 -108,433 -113,436 -118,445 -115,440 -112,435 -107,433 -101,432 -91,433 -86,435 -79,437 -82,435 -85,432 -86,438 -87,430 -89,439 -93,426 -92,439 -93,426 -95,439 -96,423 -96,440 -99,423 -98,440 -102,423 -100,441 -105,423 -101,441 -108,423 -103,442 -111,424 -105,442 -114,424 -107,443 -116,427 -108,444 -118,430 -110,445 -120,433 -111,446 -121,435 -113,448 -122,438 -114,449 -124,441 -116,451 -125,444 -118,452 -126,447 -119,454 -127,449 -119,454 -127,449 -119,454 -127,449" fill="none" stroke="#a8a8a8" stroke-width="3" /><path d="M -5,420 -9,423 -14,426 -18,428 -23,431 -28,429 -32,426 -38,422 -33,425 -29,428 -24,431 -20,429 -15,426 -11,424 -5,420 0,417 4,415 11,410 8,412 3,414 -1,420 -2,416 0,421 -5,416 -3,423 -7,417 -5,425 -10,418 -8,427 -13,419 -10,429 -15,420 -13,431 -17,420 -16,434 -19,420 -18,436 -21,421 -21,439 -23,421 -24,441 -25,421 -27,439 -28,421 -30,435 -31,421 -32,432 -33,420 -35,429 -35,420 -37,426 -37,419 -40,424 -39,419 -42,422 -40,419 -45,419 -47,417 -51,414" fill="none" stroke="#a8a8a8" stroke-width="3" /><path d="M 157,474 154,467 157,474 154,467 157,474 154,467 151,460 147,454 144,448 140,442 135,437 130,432 125,427 119,423 112,422 105,422 98,422 91,422 84,422 77,422 70,422 64,422 71,422 78,422 84,422 92,422 99,422 105,422 112,422 119,423 125,427 130,432 136,437 140,442 144,448 148,454 151,461 154,468 158,474 161,484 163,487 158,481 162,481 157,479 161,478 155,476 161,475 154,474 160,472 152,472 159,469 151,470 158,466 148,466 158,463 147,465 157,460 145,463 156,457 143,461 155,454 142,459 154,451 140,457 154,448 138,455 153,445 136,453 152,442 134,451 151,439 132,450 150,436 130,448 148,433 129,447 147,431 127,446 145,429 125,445 143,426 124,443 141,424 122,442 139,422 121,441 137,419 119,440 134,417 118,440 132,415 117,439 131,413 115,438 128,410 114,437 126,409 112,437 122,409 111,436 119,409 109,435 116,410 107,434 113,410 105,434 109,410 103,433 106,410 100,433 103,411 98,432 100,411 95,432 97,412 93,431 94,412 90,431 91,413 88,430 88,413 85,430 85,414 82,429 82,414 79,428 79,415 77,428 76,415 74,427 73,416 71,427 70,417 68,426 67,417 65,426 64,418 63,425 61,419 60,425 58,419 58,424 55,420 52,422" fill="none" stroke="#a8a8a8" stroke-width="3" /><path d="M -44,529 -45,535 -46,541 -45,535 -44,529 -47,549 -46,556 -48,573 -47,583 -46,610 -42,635 -38,649 -37,659 -36,664 -31,668 -25,678 -28,688 -30,686 -27,672 -28,665 -33,682 -35,679 -29,658 -31,652 -32,658 -37,675 -39,672 -38,667 -32,647 -34,640 -41,668 -43,663 -38,646 -35,634 -37,629 -45,658 -47,654 -38,623 -40,617 -44,634 -48,648 -50,642 -41,610 -42,600 -45,613 -51,636 -53,629 -50,622 -42,591 -43,581 -46,592 -54,623 -55,614 -51,601 -43,570 -43,559 -46,571 -56,606 -56,595 -52,580 -43,548 -55,582 -47,550 -43,537 -45,542 -46,548 -45,542 -43,537" fill="none" stroke="#a8a8a8" stroke-width="3" /><path d="M -19,199 -19,205 -19,211 -19,205 -19,199 -19,226 -19,238 -43,250 -53,226 -55,212 -81,238 -99,259 -72,232 -39,200 -65,226 -93,254 -99,261 -85,248 -57,219 -30,195 -48,214 -77,242 -97,265 -68,236 -40,208 -24,194 -32,202 -60,230 -89,258 -96,267 -81,252 -53,224 -24,195 -19,193 -44,218 -72,246 -94,271 -64,241 -36,212 -17,195 -28,206 -56,234 -84,262 -93,272 -77,256 -48,228 -16,196 -19,201 -19,228 -19,238 -4,237 7,238 28,245 46,263 52,266 61,262 70,258 82,280 87,296 110,272 102,279 82,299 95,286 114,264 86,291 71,303 78,297 106,269 115,258 98,275 70,303 66,306 90,282 116,253 110,259 82,287 54,312 73,293 102,265 116,249 94,271 66,299 48,316 58,306 86,277 116,245 106,255 78,283 49,311 26,332 41,317 69,289 97,260 114,242 90,267 61,295 33,323 20,335 25,330 54,301 82,273 110,245 114,238 102,250 73,279 45,307 17,335 11,338 37,313 65,284 93,256 114,233 85,262 57,291 29,319 7,340 21,325 49,297 78,269 106,241 114,230 97,246 69,274 41,303 12,331 0,340 32,308 61,280 89,252 111,228 81,258 53,287 25,315 -2,340 17,321 45,293 73,265 102,236 109,226 93,242 65,270 37,299 8,327 -8,340 0,332 28,304 56,276 85,248 107,224 77,254 49,282 20,311 -12,341 12,317 41,289 69,260 97,232 104,222 89,238 61,266 32,294 4,323 -16,340 -4,328 24,300 52,272 80,243 102,221 73,250 44,278 16,306 -12,335 -19,340 8,313 37,284 65,256 93,228 98,220 85,233 56,262 28,290 0,318 -23,338 -9,324 20,296 48,267 76,239 95,219 68,246 40,274 12,302 -16,330 -25,337 4,308 32,280 61,252 89,224 92,217 80,229 52,258 24,286 -4,314 -29,336 -13,320 15,291 44,263 72,235 89,217 64,241 36,270 8,298 -21,326 -31,335 0,304 28,276 56,248 86,215 76,225 48,253 20,282 -9,310 -35,333 -17,316 11,287 39,259 68,231 82,214 60,237 32,265 3,294 -25,322 -37,332 -33,328 -4,300 24,272 52,243 79,214 72,221 44,249 15,277 -13,306 -41,330 -21,311 7,283 35,255 63,226 75,213 56,233 27,261 -1,289 -29,318 -43,330 -37,324 -9,296 20,267 48,239 73,212 68,217 39,245 11,273 -17,301 -46,328 -26,307 3,279 31,250 59,222 69,211 51,229 23,257 -5,285 -33,313 -48,326 -41,320 -13,291 15,263 44,235 66,210 35,241 7,269 -21,297 -51,324 -30,303 -2,274 27,246 55,218 62,209 47,224 19,253 -9,281 -38,309 -53,323 -45,316 -17,287 11,259 39,231 59,208 31,236 3,265 -26,293 -55,320 -34,299 -6,270 22,242 51,214 56,207 43,220 15,248 -14,277 -42,305 -57,318 -50,311 -21,283 7,255 35,226 53,206 27,232 -2,260 -30,289 -60,316 -38,294 -10,266 18,238 46,209 49,205 39,216 10,244 -18,272 -46,301 -62,315 -54,307 -26,279 3,250 31,222 46,204 22,228 -6,256 -34,284 -65,312 -43,290 -14,262 14,233 44,202 34,212 6,240 -22,268 -50,296 -66,311 -58,303 -30,274 -2,246 27,218 40,202 18,224 -10,252 -38,280 -69,308 -47,286 -19,258 10,229 37,201 30,207 2,236 -26,264 -55,292 -70,306 -62,299 -34,270 -6,242 22,214 34,200 14,219 -14,248 -43,276 -72,303 -51,282 -23,253 5,225 33,196 26,203 -2,231 -31,260 -59,288 -74,301 -67,294 -38,266 -10,238 18,209 31,194 10,215 -19,243 -47,272 -77,299 -55,277 -27,249 1,221 27,194 22,199 -7,227 -35,255 -63,284 -78,297 -71,290 -43,262 -14,233 14,205 22,194 5,211 -23,239 -51,267 -81,294 -60,273 -31,245 -3,217 18,194 -11,223 -39,251 -67,279 -82,292 -75,286 -47,258 -19,229 10,201 13,195 1,207 -27,235 -55,263 -84,289 -64,269 -36,241 -7,212 9,195 -15,219 -43,247 -72,275 -85,287 -79,282 -51,253 -23,225 5,195 -3,202 -31,231 -60,259 -88,284 -68,265 -40,236 -12,208 1,194 -19,214 -48,243 -76,271 -89,282 -84,277 -55,249 -27,221 -4,195 -36,226 -64,255 -91,279 -72,260 -44,232 -16,204 -7,194 -24,210 -52,238 -80,267 -92,277 -88,273 -60,245 -31,217 -12,195 -40,222 -68,250 -94,273 -77,256 -48,228 -20,200 -16,194 -28,206 -56,234 -84,262 -94,271 -64,241 -36,212 -17,194 -21,198 -26,202 -21,198 -17,194" fill="none" stroke="#ffff00" stroke-width="3" /><path d="M -236,627 -235,633 -234,639 -235,633 -236,627 -233,654 -232,667 -224,680 -219,684 -205,707 -188,729 -173,753 -156,774 -142,796 -127,820 -112,842 -102,858 -76,854 -59,853 -79,819 -91,798 -110,769 -95,794 -75,829 -58,861 -71,838 -91,804 -111,769 -131,737 -127,743 -107,778 -87,813 -67,847 -58,867 -64,857 -84,822 -104,788 -124,753 -137,730 -150,712 -140,728 -120,763 -100,797 -80,832 -60,867 -59,872 -76,841 -96,807 -116,772 -136,737 -162,695 -152,712 -132,746 -112,781 -92,816 -72,850 -59,877 -69,860 -89,825 -109,791 -129,756 -149,722 -169,687 -180,672 -166,697 -146,731 -126,766 -106,800 -86,835 -66,870 -60,882 -82,844 -102,810 -122,775 -142,740 -162,706 -182,671 -197,646 -177,680 -157,715 -137,749 -117,784 -97,819 -77,853 -61,886 -74,863 -94,828 -114,794 -134,759 -154,725 -174,690 -194,655 -206,639 -191,665 -171,700 -151,734 -131,769 -111,803 -91,838 -71,873 -62,891 -67,882 -87,847 -107,813 -127,778 -147,743 -167,709 -187,674 -207,639 -210,636 -203,649 -183,683 -163,718 -143,752 -123,787 -103,822 -83,856 -63,895 -79,866 -99,831 -119,797 -139,762 -159,728 -179,693 -199,658 -218,631 -196,668 -176,703 -156,737 -136,772 -116,806 -96,841 -76,876 -64,898 -72,885 -92,850 -112,816 -132,781 -152,746 -172,712 -192,677 -212,642 -221,629 -208,652 -188,686 -168,721 -148,755 -128,790 -108,825 -88,859 -68,894 -66,902 -85,869 -105,834 -125,800 -145,765 -165,731 -185,696 -205,661 -227,627 -221,636 -201,671 -181,706 -161,740 -141,775 -121,809 -101,844 -81,879 -67,906 -77,888 -97,853 -117,819 -137,784 -157,749 -177,715 -197,680 -217,645 -230,626 -213,655 -193,689 -173,724 -153,758 -133,793 -113,828 -93,862 -73,897 -69,908 -90,872 -110,837 -130,803 -150,768 -170,734 -190,699 -210,664 -230,630 -235,624 -226,639 -206,674 -186,709 -166,743 -146,778 -126,812 -106,847 -86,882 -70,912 -82,891 -102,856 -122,822 -142,787 -162,752 -182,718 -202,683 -222,648 -238,624 -218,658 -198,692 -178,727 -158,761 -138,796 -118,831 -98,865 -78,900 -73,913 -95,875 -115,840 -135,806 -155,771 -175,737 -195,702 -215,667 -235,633 -241,626 -232,642 -212,677 -192,712 -172,746 -152,781 -132,815 -112,850 -92,885 -75,914 -96,893 -107,888 -126,895 -153,889 -178,881 -203,872 -229,865 -255,856 -281,849 -296,845 -322,840 -330,838 -335,841 -362,845 -358,871 -374,842 -360,866 -354,874 -364,857 -374,836 -367,848 -348,877 -370,838 -373,831 -355,863 -345,878 -359,854 -372,826 -362,845 -339,881 -345,869 -365,835 -371,823 -349,860 -336,881 -354,851 -370,819 -357,842 -337,876 -331,883 -340,866 -360,832 -369,815 -364,823 -344,857 -328,883 -348,848 -367,812 -352,839 -332,873 -323,884 -335,863 -355,829 -366,808 -359,820 -339,854 -321,884 -343,845 -363,811 -364,805 -346,836 -326,870 -315,886 -330,860 -350,826 -362,802 -354,817 -334,851 -313,885 -318,877 -338,842 -358,808 -361,799 -341,833 -321,867 -308,886 -324,857 -344,823 -359,796 -349,814 -329,848 -306,886 -313,874 -333,839 -353,805 -364,782 -356,795 -336,830 -316,864 -301,887 -319,854 -339,820 -359,785 -368,768 -363,776 -343,811 -323,845 -303,880 -298,887 -308,871 -328,836 -348,802 -368,767 -371,757 -351,792 -331,827 -311,861 -293,889 -314,851 -334,817 -354,782 -373,747 -358,773 -338,808 -318,842 -298,877 -290,889 -302,868 -322,833 -342,799 -362,764 -375,739 -366,754 -346,789 -326,824 -306,858 -284,892 -289,883 -309,848 -329,814 -349,779 -369,745 -376,731 -353,770 -333,805 -313,839 -293,874 -281,893 -297,865 -317,830 -337,796 -357,761 -376,724 -360,751 -340,786 -320,821 -300,855 -280,890 -276,894 -284,880 -304,845 -324,811 -344,776 -364,742 -374,721 -368,732 -348,767 -328,802 -308,836 -288,871 -272,896 -292,862 -312,827 -332,793 -352,758 -372,723 -373,717 -355,748 -335,783 -315,818 -295,852 -275,887 -267,897 -279,877 -299,842 -319,808 -339,773 -359,739 -372,714 -363,729 -343,764 -323,799 -303,833 -283,868 -264,898 -287,859 -307,824 -327,790 -347,755 -367,720 -370,711 -350,745 -330,780 -310,815 -290,849 -270,884 -258,900 -273,874 -293,839 -313,805 -333,770 -353,736 -368,708 -357,726 -337,761 -317,796 -297,830 -277,865 -256,901 -262,890 -282,856 -302,821 -322,787 -342,752 -362,717 -366,706 -345,742 -325,777 -305,812 -285,846 -265,881 -250,902 -268,871 -288,836 -308,802 -328,767 -348,733 -363,704 -352,723 -332,758 -312,793 -292,827 -272,862 -252,897 -247,903 -256,887 -276,853 -296,818 -316,784 -336,749 -356,714 -361,702 -340,739 -320,774 -300,809 -280,843 -260,878 -241,905 -263,868 -283,833 -303,799 -323,764 -343,730 -359,700 -347,720 -327,755 -307,790 -287,824 -267,859 -247,894 -239,906 -251,884 -271,850 -291,815 -311,781 -331,746 -351,711 -355,700 -334,736 -314,771 -294,806 -274,840 -254,875 -233,908 -238,900 -258,865 -278,830 -298,796 -318,761 -338,727 -353,698 -342,717 -322,752 -302,787 -282,821 -262,856 -242,891 -230,908 -246,881 -266,847 -286,812 -306,778 -326,743 -346,708 -350,698 -329,733 -309,768 -289,803 -269,837 -249,872 -229,906 -225,911 -233,897 -253,862 -273,827 -293,793 -313,758 -333,724 -347,697 -337,714 -317,749 -297,784 -277,818 -257,853 -237,888 -222,911 -241,878 -261,844 -281,809 -301,775 -321,740 -341,705 -343,697 -324,730 -304,765 -284,800 -264,834 -244,869 -224,903 -216,913 -227,894 -247,859 -267,824 -287,790 -307,755 -327,721 -340,697 -331,711 -311,746 -291,781 -271,815 -251,850 -231,885 -213,914 -236,875 -256,841 -276,806 -296,772 -316,737 -336,702 -336,697 -319,727 -299,762 -279,797 -259,831 -239,866 -219,900 -208,916 -222,891 -242,856 -262,821 -282,787 -302,752 -322,718 -333,697 -326,708 -306,743 -286,778 -266,812 -246,847 -226,882 -205,917 -210,907 -230,872 -250,838 -270,803 -290,769 -310,734 -329,698 -314,724 -294,759 -274,794 -254,828 -234,863 -214,897 -199,918 -217,888 -237,853 -257,818 -277,784 -297,749 -317,715 -325,699 -321,705 -301,740 -281,775 -261,809 -241,844 -221,879 -201,913 -196,920 -205,904 -225,869 -245,835 -265,800 -285,766 -305,731 -321,700 -308,721 -288,756 -268,791 -248,825 -228,860 -208,894 -191,921 -212,885 -232,850 -252,815 -272,781 -292,746 -312,712 -317,700 -296,737 -276,772 -256,806 -236,841 -216,876 -196,910 -188,922 -200,901 -220,866 -240,832 -260,797 -280,763 -300,728 -314,700 -303,718 -283,753 -263,788 -243,822 -223,857 -203,891 -182,924 -187,916 -207,882 -227,847 -247,812 -267,778 -287,743 -307,709 -310,700 -291,734 -271,769 -251,803 -231,838 -211,873 -191,907 -179,925 -195,898 -215,863 -235,829 -255,794 -275,760 -295,725 -307,700 -298,715 -278,750 -258,785 -238,819 -218,854 -198,888 -178,923 -173,927 -181,913 -201,879 -221,844 -241,809 -261,775 -281,740 -301,706 -304,699 -285,731 -265,766 -245,800 -225,835 -205,870 -185,904 -171,928 -190,895 -210,860 -230,826 -250,791 -270,757 -290,722 -300,699 -293,712 -273,747 -253,782 -233,816 -213,851 -193,885 -173,920 -165,930 -176,910 -196,876 -216,841 -236,806 -256,772 -276,737 -296,703 -298,698 -280,728 -260,763 -240,797 -220,832 -200,867 -180,901 -161,932 -164,927 -184,892 -204,857 -224,823 -244,788 -264,754 -284,719 -295,697 -288,709 -268,744 -248,779 -228,813 -208,848 -188,882 -168,917 -156,933 -171,907 -191,873 -211,838 -231,803 -251,769 -271,734 -292,696 -275,725 -255,760 -235,794 -215,829 -195,864 -175,898 -153,934 -159,924 -179,889 -199,854 -219,820 -239,785 -259,751 -279,716 -289,695 -282,706 -262,741 -242,776 -222,810 -202,845 -182,879 -162,914 -148,936 -166,904 -186,870 -206,835 -226,800 -246,766 -266,731 -286,693 -270,722 -250,757 -230,791 -210,826 -190,861 -170,895 -150,930 -145,936 -154,921 -174,886 -194,851 -214,817 -234,782 -254,748 -274,713 -284,691 -277,703 -257,738 -237,773 -217,807 -197,842 -177,876 -157,911 -140,938 -161,901 -181,867 -201,832 -221,797 -241,763 -261,728 -281,694 -282,689 -265,719 -245,754 -225,788 -205,823 -185,858 -165,892 -145,927 -137,939 -149,918 -169,883 -189,848 -209,814 -229,779 -249,745 -269,710 -280,686 -272,700 -252,735 -232,770 -212,804 -192,839 -172,873 -152,908 -132,939 -135,933 -155,898 -175,864 -195,829 -215,794 -235,760 -255,725 -275,691 -278,683 -259,716 -239,751 -219,785 -199,820 -179,855 -159,889 -139,924 -130,939 -144,915 -164,880 -184,845 -204,811 -224,776 -244,742 -264,707 -277,680 -267,697 -247,732 -227,767 -207,801 -187,836 -167,870 -147,905 -125,939 -130,930 -150,895 -170,861 -190,826 -210,791 -230,757 -250,722 -270,688 -276,675 -254,713 -234,748 -214,782 -194,817 -174,852 -154,886 -134,921 -123,939 -138,912 -158,877 -178,842 -198,808 -218,773 -238,739 -258,704 -276,670 -262,694 -242,729 -222,764 -202,798 -182,833 -162,867 -142,902 -118,938 -125,927 -145,892 -165,858 -185,823 -205,788 -225,754 -245,719 -265,685 -275,666 -269,675 -249,710 -229,745 -209,779 -189,814 -169,849 -149,883 -129,918 -116,938 -133,909 -153,874 -173,839 -193,805 -213,770 -233,736 -253,701 -274,662 -257,691 -237,726 -217,761 -197,795 -177,830 -157,864 -137,899 -117,934 -112,937 -120,924 -140,889 -160,855 -180,820 -200,785 -220,751 -240,716 -260,682 -272,659 -264,672 -244,707 -224,742 -204,776 -184,811 -164,846 -144,880 -124,915 -111,936 -128,906 -148,871 -168,836 -188,802 -208,767 -228,733 -248,698 -268,663 -270,655 -251,688 -231,723 -211,758 -191,792 -171,827 -151,861 -131,896 -111,931 -107,935 -115,921 -135,886 -155,852 -175,817 -195,782 -215,748 -235,713 -255,679 -269,652 -259,669 -239,704 -219,739 -199,773 -179,808 -159,843 -139,877 -119,912 -105,934 -123,903 -143,868 -163,833 -183,799 -203,764 -223,730 -243,695 -263,660 -267,649 -246,685 -226,720 -206,755 -186,789 -166,824 -146,858 -126,893 -106,928 -101,933 -109,918 -129,883 -149,849 -169,814 -189,779 -209,745 -229,710 -249,676 -266,646 -254,666 -234,701 -214,736 -194,770 -174,805 -154,840 -134,874 -114,909 -99,932 -118,900 -138,865 -158,830 -178,796 -198,761 -218,727 -238,692 -258,657 -263,643 -241,682 -221,717 -201,752 -181,786 -161,821 -141,855 -121,890 -101,925 -95,931 -104,915 -124,880 -144,846 -164,811 -184,776 -204,742 -224,707 -244,673 -262,640 -248,663 -228,698 -208,733 -188,767 -168,802 -148,837 -128,871 -108,906 -93,930 -112,897 -132,862 -152,827 -172,793 -192,758 -212,724 -232,689 -252,654 -260,638 -256,645 -236,679 -216,714 -196,749 -176,783 -156,818 -136,852 -116,887 -96,922 -90,928 -99,912 -119,877 -139,843 -159,808 -179,773 -199,739 -219,704 -239,670 -258,635 -243,660 -223,695 -203,730 -183,764 -163,799 -143,834 -123,868 -103,903 -88,927 -107,894 -127,859 -147,824 -167,790 -187,755 -207,721 -227,686 -247,651 -256,632 -251,642 -231,676 -211,711 -191,746 -171,780 -151,815 -131,849 -111,884 -91,919 -85,925 -94,909 -114,874 -134,840 -154,805 -174,770 -194,736 -214,701 -234,667 -254,630 -238,657 -218,692 -198,727 -178,761 -158,796 -138,831 -118,865 -98,900 -83,924 -102,891 -122,856 -142,821 -162,787 -182,752 -202,718 -222,683 -242,648 -251,628 -245,639 -225,673 -205,708 -185,743 -165,777 -145,812 -125,846 -105,881 -85,916 -80,922 -89,906 -109,871 -129,837 -149,802 -169,767 -189,733 -209,698 -229,664 -249,627 -233,654 -213,689 -193,724 -173,758 -153,793 -133,828 -113,862 -93,897 -78,920 -97,888 -117,853 -137,818 -157,784 -177,749 -197,715 -217,680 -237,645 -246,626 -240,636 -220,670 -200,705 -180,740 -160,774 -140,809 -120,843 -100,878 -80,913 -75,917 -83,903 -103,868 -123,834 -143,799 -163,764 -183,730 -203,695 -223,661 -243,625 -228,651 -208,686 -188,721 -168,755 -148,790 -128,825 -108,859 -88,894 -74,916 -92,885 -112,850 -132,815 -152,781 -172,746 -192,712 -212,677 -232,642 -240,624 -235,633 -215,667 -195,702 -175,737 -155,771 -135,806 -115,840 -95,875 -71,912 -78,900 -98,865 -118,831 -138,796 -158,761 -178,727 -198,692 -218,658 -238,624 -235,629 -232,634 -235,629 -238,624" fill="none" stroke="#ffff00" stroke-width="3" /><path d="M 218,667 213,670 208,674 213,670 218,667 193,684 196,698 201,712 219,732 241,746 263,751 288,748 313,740 320,732 328,706 333,688 335,681 331,671 325,657 321,665 309,689 331,655 314,684 312,691 320,676 333,656 326,668 312,691 329,707 325,718 323,729 329,746 346,766 367,784 379,791 394,792 428,791 416,812 412,817 429,786 424,794 406,821 417,801 427,781 411,809 401,824 405,817 425,783 426,778 419,791 396,827 412,798 424,775 406,806 391,830 400,814 420,780 422,773 414,788 394,822 385,834 407,795 419,770 400,803 379,838 394,811 414,777 418,768 409,785 389,819 373,842 382,827 402,792 415,766 395,800 375,835 367,846 389,808 409,774 413,764 403,782 383,816 362,850 377,824 397,789 410,762 390,797 370,832 356,854 364,840 384,805 404,771 408,761 398,779 378,813 358,848 350,858 371,821 391,786 405,759 385,794 365,829 345,861 359,837 379,802 399,768 403,758 393,776 373,810 353,845 339,865 346,853 366,818 386,783 400,756 380,791 360,826 340,860 334,869 354,834 374,799 394,765 398,755 388,773 368,807 348,842 328,872 341,850 361,815 381,780 395,752 374,788 354,823 334,857 322,876 328,866 348,831 368,796 388,762 394,751 383,770 363,804 343,839 323,874 316,881 336,847 356,812 376,777 391,748 369,785 349,820 329,854 310,885 323,863 343,828 363,793 383,759 389,747 377,767 357,801 337,836 317,871 304,890 311,878 331,844 351,809 371,774 385,745 364,782 344,817 324,851 304,886 296,899 318,860 338,825 358,790 378,756 384,743 372,764 352,798 332,833 312,868 289,904 305,875 325,841 345,806 365,771 381,740 359,779 339,814 319,848 299,883 283,909 293,891 313,857 333,822 353,787 373,753 380,739 367,761 347,795 327,830 307,865 287,899 277,912 280,907 300,872 320,838 340,803 360,768 377,736 374,741 354,776 334,811 314,845 294,880 272,916 288,888 308,854 328,819 348,784 368,750 375,734 362,758 342,792 322,827 302,862 282,896 267,919 275,904 295,869 315,835 335,800 355,765 372,732 368,738 348,773 328,808 308,842 288,877 268,912 260,924 282,885 302,851 322,816 342,781 362,747 371,730 357,755 337,789 317,824 297,859 277,893 253,930 270,901 290,866 310,832 330,797 350,762 369,726 363,735 343,770 323,805 303,839 283,874 263,909 248,932 257,917 277,882 297,848 317,813 337,778 357,744 367,724 351,752 331,786 311,821 291,856 271,890 251,925 244,934 265,898 285,863 305,829 325,794 345,759 365,720 358,732 338,767 318,802 298,836 278,871 258,906 239,936 252,914 272,879 292,845 312,810 332,775 352,741 363,719 346,749 326,783 306,818 286,853 266,887 246,922 235,937 239,930 259,895 279,860 299,826 319,791 339,756 359,722 360,716 353,729 333,764 313,799 293,833 273,868 253,903 231,938 247,911 267,876 287,842 307,807 327,772 347,738 359,715 341,746 321,780 301,815 281,850 261,884 241,919 228,938 234,927 254,892 274,857 294,823 314,788 334,753 354,719 357,710 348,726 328,761 308,796 288,830 268,865 248,900 228,934 224,939 242,908 262,873 282,839 302,804 322,769 342,735 356,707 336,743 316,777 296,812 276,847 256,881 236,916 221,938 229,924 249,889 269,854 289,820 309,785 329,750 349,716 356,700 342,723 322,758 302,793 282,827 262,862 242,897 222,931 217,939 236,905 256,870 276,836 296,801 316,766 336,732 356,697 351,705 331,740 311,774 291,809 271,844 251,878 231,913 213,939 224,921 244,886 264,851 284,817 304,782 324,747 344,713 357,687 337,720 317,755 297,790 277,824 257,859 237,894 217,928 210,939 231,902 251,867 271,833 291,798 311,763 331,729 351,694 357,681 345,702 325,737 305,771 285,806 265,841 245,875 225,910 207,938 219,918 239,883 259,848 279,814 299,779 319,744 339,710 358,672 352,683 332,717 312,752 292,787 272,821 252,856 232,891 212,925 203,939 206,933 226,899 246,864 266,830 286,795 306,760 326,726 346,691 357,670 340,699 320,734 300,768 280,803 260,838 240,872 220,907 200,938 214,915 234,880 254,845 274,811 294,776 314,741 334,707 354,672 355,665 347,680 327,714 307,749 287,784 267,818 247,853 227,888 207,922 197,937 201,930 221,896 241,861 261,827 281,792 301,757 321,723 341,688 355,662 335,696 315,731 295,765 275,800 255,835 235,869 215,904 194,937 208,912 228,877 248,842 268,808 288,773 308,738 328,704 348,669 352,659 342,677 322,711 302,746 282,781 262,815 242,850 222,885 202,919 191,936 196,927 216,893 236,858 256,824 276,789 296,754 316,720 336,685 351,657 330,693 310,728 290,762 270,797 250,832 230,866 210,901 187,936 203,909 223,874 243,839 263,805 283,770 303,735 323,701 343,666 348,654 336,674 316,708 296,743 276,778 256,812 236,847 216,882 196,916 184,936 191,924 211,890 231,855 251,821 271,786 291,751 311,717 331,682 347,652 325,690 305,725 285,759 265,794 245,829 225,863 205,898 181,935 198,906 218,871 238,836 258,802 278,767 298,732 318,698 338,663 343,651 331,671 311,705 291,740 271,775 251,809 231,844 211,879 191,913 178,934 185,921 205,887 225,852 245,818 265,783 285,748 305,714 325,679 341,650 319,687 299,722 279,756 259,791 239,826 219,860 199,895 179,930 175,933 193,903 213,868 233,833 253,799 273,764 293,729 313,695 333,660 336,651 326,668 306,702 286,737 266,772 246,806 226,841 206,876 186,910 172,932 180,918 200,884 220,849 240,815 260,780 280,745 300,711 320,676 333,652 314,684 294,719 274,753 254,788 234,823 214,857 194,892 174,927 170,931 188,900 208,865 228,830 248,796 268,761 288,726 303,696 281,734 261,769 241,803 221,838 201,873 181,907 167,929 175,915 195,881 215,846 235,812 255,777 275,742 295,708 298,700 289,716 269,750 249,785 229,820 209,854 189,889 169,924 164,928 182,897 202,862 222,827 242,793 262,758 282,723 291,704 276,731 256,766 236,800 216,835 196,870 176,904 162,926 170,912 190,878 210,843 230,809 250,774 270,739 288,705 284,713 264,747 244,782 224,817 204,851 184,886 164,921 160,924 177,894 197,859 217,824 237,790 257,755 277,720 283,706 270,728 250,763 230,797 210,832 190,867 170,901 157,922 165,909 185,875 205,840 225,806 245,771 265,736 280,707 259,744 239,779 219,814 199,848 179,883 155,920 172,891 192,856 212,821 232,787 252,752 272,717 275,708 265,725 245,760 225,794 205,829 185,864 165,898 153,918 159,906 179,872 199,837 219,803 239,768 259,733 272,709 253,741 233,776 213,811 193,845 173,880 151,915 167,888 187,853 207,818 227,784 247,749 267,714 268,708 260,722 240,757 220,791 200,826 180,861 160,895 149,912 154,903 174,869 194,834 214,800 234,765 254,730 266,708 248,738 228,773 208,808 188,842 168,877 148,909 162,885 182,850 202,815 222,781 242,746 262,707 255,719 235,754 215,788 195,823 175,858 155,892 146,905 169,866 189,831 209,797 229,762 249,727 260,707 243,735 223,770 203,805 183,839 163,874 145,902 156,882 176,847 196,812 216,778 236,743 256,705 250,716 230,751 210,785 190,820 170,855 150,889 144,897 164,863 184,828 204,794 224,759 244,724 254,704 238,732 218,767 198,802 178,836 158,871 144,891 151,879 171,844 191,809 211,775 231,740 251,702 244,713 224,748 204,782 184,817 164,852 143,887 159,860 179,825 199,791 219,756 239,721 249,701 233,729 213,764 193,799 173,833 153,868 143,881 146,876 166,841 186,806 206,772 226,737 246,699 239,710 219,745 199,779 179,814 159,849 143,875 153,857 173,822 193,788 213,753 233,718 244,697 227,726 207,761 187,796 167,830 147,865 143,869 161,838 181,803 201,769 221,734 241,699 242,694 234,707 214,742 194,776 174,811 154,846 143,863 148,854 168,819 188,785 208,750 228,715 240,693 222,723 202,758 182,793 162,827 144,856 156,835 176,800 196,766 216,731 236,696 237,690 229,704 209,739 189,773 169,808 149,843 144,849 163,816 183,782 203,747 223,712 236,688 217,720 197,755 177,790 157,824 145,841 150,832 170,797 190,763 210,728 230,693 233,685 224,701 204,736 184,770 164,805 147,832 158,813 178,779 198,744 218,709 232,683 212,717 192,752 172,787 148,824 165,794 185,760 205,725 225,690 229,679 218,698 198,733 178,767 158,802 150,815 173,776 193,741 213,706 228,677 207,714 187,749 167,784 151,806 160,791 180,757 200,722 220,687 226,673 213,695 193,730 173,764 152,799 167,773 187,738 207,703 225,671 222,677 202,711 182,746 162,781 153,791 175,754 195,719 215,684 223,666 208,692 188,727 168,761 154,783 162,770 182,735 202,700 222,663 216,674 196,708 176,743 155,777 170,751 190,716 210,681 219,661 203,689 183,724 163,758 154,771 177,732 197,697 218,661 215,665 191,676 183,654 178,644 175,650 159,679 181,642 166,668 157,688 173,660 187,641 180,653 160,687 156,697 166,679 186,645 190,640 172,671 156,702 178,663 194,640 185,656 165,690 155,710 171,682 191,648 196,640 177,674 157,709 155,717 164,701 184,666 201,641 190,659 170,693 154,723 176,685 196,651 203,641 182,677 162,712 154,729 169,704 189,669 207,643 196,662 176,696 154,735 161,723 181,688 201,654 208,644 187,680 167,715 154,741 174,707 194,672 212,646 201,665 181,699 161,734 155,747 167,726 187,691 207,657 213,648 192,683 172,718 155,753 159,745 179,710 199,675 215,651 206,668 186,702 166,737 155,758 172,729 192,694 212,660 217,653 198,686 178,721 158,755 155,764 164,748 184,713 204,678 219,657 211,671 191,705 171,740 154,771 177,732 197,697 217,663 220,659 203,689 183,724 163,758 155,777 170,751 190,716 210,681 221,662 218,667 215,672 218,667 221,662" fill="none" stroke="#ffff00" stroke-width="3" /><path d="M 83,251 78,254 73,257 68,260 63,263 57,266 52,269 47,272 42,275 37,278 31,280 26,283 21,285 15,287 10,288 4,290 -2,291 -8,292 -13,292 -19,293 -25,293 -31,292 -37,291 -43,290 -49,288 -54,286 -59,283 -65,280 -71,274 -67,278 -62,282 -56,284 -51,287 -45,289 -39,290 -33,292 -27,292 -21,293 -15,293 -9,292 -3,291 3,290 8,289 14,287 19,285 25,283 30,281 35,278 41,276 46,273 51,270 56,267 61,264 67,261 72,258 76,255 83,250 90,244 93,245 85,246 90,248 82,247 87,251 79,249 84,254 76,250 81,257 73,252 78,259 70,254 74,262 66,256 71,264 63,258 68,266 59,260 64,268 56,262 61,270 52,263 57,272 49,265 54,274 45,267 50,276 42,269 47,278 39,270 43,280 35,272 40,282 32,274 36,284 28,275 33,286 24,277 29,288 21,278 25,289 18,279 22,291 14,281 18,292 11,282 14,293 7,283 10,294 4,284 7,295 1,285 3,296 -3,285 -1,296 -7,286 -5,297 -11,287 -9,297 -14,287 -13,298 -18,287 -17,298 -21,287 -21,299 -25,287 -25,298 -28,286 -29,298 -31,286 -33,298 -35,285 -37,297 -38,285 -41,296 -42,284 -45,295 -45,283 -49,293 -49,282 -53,292 -52,281 -57,290 -55,279 -60,288 -58,278 -63,286 -62,276 -67,284 -65,275 -70,281 -67,273 -72,278 -70,271 -75,274 -72,269 -76,270 -74,267 -78,266" fill="none" stroke="#000000" stroke-width="3" /><path d="M -24,212 -32,217 -24,212 -32,217 -24,212 -32,217 -26,218 -38,220 -24,215 -38,217 -22,212 -28,214 -34,216 -28,214 -22,212" fill="none" stroke="#000000" stroke-width="3" /><path d="M 2,209 6,214 22,217 0,210 10,212 21,214 0,209 6,210 12,212 6,210 0,209" fill="none" stroke="#000000" stroke-width="3" /></svg>